<svg version="1.1" xmlns="http://www.w3.org/2000/svg" xmlns:xlink="http://www.w3.org/1999/xlink" width="671.5563" height="448.47108" viewBox="0,0,671.5563,448.47108"><g transform="translate(66.44205,29.6)"><g data-paper-data="{&quot;isPaintingLayer&quot;:true}" fill-rule="nonzero" stroke-linejoin="miter" stroke-miterlimit="10" stroke-dasharray="" stroke-dashoffset="0" style="mix-blend-mode: normal"><text transform="translate(564.08291,190.21057) scale(0.20559,0.20559)" font-size="40" xml:space="preserve" fill="#353535" fill-rule="nonzero" stroke="none" stroke-width="1" stroke-linecap="butt" stroke-linejoin="miter" stroke-miterlimit="10" stroke-dasharray="" stroke-dashoffset="0" font-family="Sans Serif" font-weight="normal" text-anchor="start" style="mix-blend-mode: normal"><tspan x="0" dy="0"> </tspan></text><text transform="translate(-2.411,196.31131) scale(0.24741,0.08738)" font-size="40" xml:space="preserve" fill="#353535" fill-rule="nonzero" stroke="none" stroke-width="1" stroke-linecap="butt" stroke-linejoin="miter" stroke-miterlimit="10" stroke-dasharray="" stroke-dashoffset="0" font-family="Sans Serif" font-weight="normal" text-anchor="start" style="mix-blend-mode: normal"><tspan x="0" dy="0"> </tspan></text><text transform="translate(200.36691,197.79889) scale(0.24741,0.08738)" font-size="40" xml:space="preserve" fill="#353535" fill-rule="nonzero" stroke="none" stroke-width="1" stroke-linecap="butt" stroke-linejoin="miter" stroke-miterlimit="10" stroke-dasharray="" stroke-dashoffset="0" font-family="Sans Serif" font-weight="normal" text-anchor="start" style="mix-blend-mode: normal"><tspan x="0" dy="0"> </tspan></text><text transform="translate(404.94997,198.64894) scale(0.24741,0.08738)" font-size="40" xml:space="preserve" fill="#353535" fill-rule="nonzero" stroke="none" stroke-width="1" stroke-linecap="butt" stroke-linejoin="miter" stroke-miterlimit="10" stroke-dasharray="" stroke-dashoffset="0" font-family="Sans Serif" font-weight="normal" text-anchor="start" style="mix-blend-mode: normal"><tspan x="0" dy="0"> </tspan></text><text transform="translate(-2.411,190.3053) scale(0.24741,0.08738)" font-size="40" xml:space="preserve" fill="#353535" fill-rule="nonzero" stroke="none" stroke-width="1" stroke-linecap="butt" stroke-linejoin="miter" stroke-miterlimit="10" stroke-dasharray="" stroke-dashoffset="0" font-family="Sans Serif" font-weight="normal" text-anchor="start" style="mix-blend-mode: normal"><tspan x="0" dy="0"> </tspan></text><text transform="translate(200.36691,191.79286) scale(0.24741,0.08738)" font-size="40" xml:space="preserve" fill="#353535" fill-rule="nonzero" stroke="none" stroke-width="1" stroke-linecap="butt" stroke-linejoin="miter" stroke-miterlimit="10" stroke-dasharray="" stroke-dashoffset="0" font-family="Sans Serif" font-weight="normal" text-anchor="start" style="mix-blend-mode: normal"><tspan x="0" dy="0"> </tspan></text><text transform="translate(404.94997,192.64293) scale(0.24741,0.08738)" font-size="40" xml:space="preserve" fill="#353535" fill-rule="nonzero" stroke="none" stroke-width="1" stroke-linecap="butt" stroke-linejoin="miter" stroke-miterlimit="10" stroke-dasharray="" stroke-dashoffset="0" font-family="Sans Serif" font-weight="normal" text-anchor="start" style="mix-blend-mode: normal"><tspan x="0" dy="0"> </tspan></text><path d="M602.862,154.54397c-1.24388,0 -2.25225,-0.33612 -2.25225,-0.75075c0,-0.41463 1.00837,-0.75075 2.25225,-0.75075c1.24388,0 2.25225,0.33612 2.25225,0.75075c0,0.41463 -1.00837,0.75075 -2.25225,0.75075z" fill="#4f8095" stroke="none" stroke-width="0" stroke-linecap="butt"/><path d="M390.64681,269.49172z" fill="#4f8095" stroke="none" stroke-width="0" stroke-linecap="butt"/><path d="M-29.49999,389.59998v-419.19998h539v419.2z" fill="#b86161" stroke="none" stroke-width="0" stroke-linecap="butt"/><path d="M-2.48476,229.1925c44.97701,-4.99459 106.49932,65.65287 262.94596,67.15278c156.18913,1.49744 269.22047,-59.7833 275.22648,25.6417c1.29292,18.38957 13.58016,66.58286 -33.06363,79.13239c-51.72572,13.91683 -110.20044,9.33038 -250.98278,15.33639c-91.56866,3.90647 -168.81114,2.92685 -223.93421,-1.87429c-38.92352,-3.39018 -66.8597,-10.63359 -81.15267,-25.48154c-17.36307,-18.03724 -30.3895,-150.87367 50.96085,-159.90743z" data-paper-data="{&quot;index&quot;:null}" fill="#a65858" stroke="none" stroke-width="0" stroke-linecap="butt"/><path d="M433.71136,211.29298c-2.31852,8.51539 -11.38878,13.46063 -20.25898,11.04549c-8.8702,-2.41513 -14.18137,-11.27607 -11.86285,-19.79146c2.31852,-8.51539 11.38878,-13.46063 20.25898,-11.04549c8.8702,2.41513 14.18137,11.27607 11.86285,19.79146z" fill="#8a4949" stroke="none" stroke-width="0" stroke-linecap="butt"/><path d="M377.76389,314.75067l29.03661,-106.64446l17.98822,4.89774l-29.03661,106.64446z" fill="#8a4949" stroke="none" stroke-width="0" stroke-linecap="butt"/><path d="M440.50235,313.44982c0,0 -7.63262,20.73811 -53.50546,9.15676c-37.72495,-9.52427 -34.23057,-41.77158 -34.23057,-41.77158" fill="none" stroke="#8a4949" stroke-width="20.5" stroke-linecap="round"/><path d="M375.99426,236.51486l64.38948,20.15107" fill="none" stroke="#8a4949" stroke-width="20.5" stroke-linecap="round"/><text transform="translate(53.0088,108.46048) scale(0.95504,0.95504)" font-size="40" xml:space="preserve" fill="#c0c0c0" fill-rule="nonzero" stroke="#c0c0c0" stroke-width="1" stroke-linecap="butt" stroke-linejoin="miter" stroke-miterlimit="10" stroke-dasharray="" stroke-dashoffset="0" font-family="Sans Serif" font-weight="normal" text-anchor="start" style="mix-blend-mode: normal"><tspan x="0" dy="0">Error, opponent left!</tspan></text><text transform="translate(94.76004,343.42641) scale(0.5,0.5)" font-size="40" xml:space="preserve" fill="#c0c0c0" fill-rule="nonzero" stroke="none" stroke-width="1" stroke-linecap="butt" stroke-linejoin="miter" stroke-miterlimit="10" stroke-dasharray="" stroke-dashoffset="0" font-family="Sans Serif" font-weight="normal" text-anchor="start" style="mix-blend-mode: normal"><tspan x="0" dy="0">REFRESH PAGE TO PLAY AGAIN</tspan></text></g></g></svg>