<svg version="1.1" xmlns="http://www.w3.org/2000/svg" xmlns:xlink="http://www.w3.org/1999/xlink" width="604.51593" height="452.92416" viewBox="0,0,604.51593,452.92416"><g transform="translate(64.08028,29.6)"><g data-paper-data="{&quot;isPaintingLayer&quot;:true}" stroke="none" stroke-linejoin="miter" stroke-miterlimit="10" stroke-dasharray="" stroke-dashoffset="0" style="mix-blend-mode: normal"><path d="M-29.49999,389.59998v-419.19998h539v419.2z" fill="#619db7" fill-rule="nonzero" stroke-width="0" stroke-linecap="butt"/><path d="M42.69137,95.39269h9.20057l7.99192,16.46482l7.99192,-16.46482h9.18824l-12.82653,24.93774v8.95391h-8.70725v-8.95391zM99.82178,104.59326c0,-1.9322 -0.97021,-2.89831 -2.91063,-2.89831h-8.22624c-1.9322,0 -2.89831,0.96611 -2.89831,2.89831v15.49051c0,1.94042 0.96611,2.91063 2.89831,2.91063h8.22624c1.94042,0 2.91063,-0.97021 2.91063,-2.91063zM108.52902,120.08376c0,3.38752 -0.76878,5.85005 -2.30631,7.3876c-1.52932,1.52932 -3.98774,2.29398 -7.37525,2.29398h-12.09887c-3.38752,0 -5.85005,-0.76466 -7.3876,-2.29398c-1.52932,-1.53753 -2.29398,-4.00006 -2.29398,-7.3876v-15.49051c0,-3.38752 0.76466,-5.84594 2.29398,-7.37525c1.53753,-1.53753 4.00006,-2.30631 7.3876,-2.30631h12.09887c3.38752,0 5.84594,0.76878 7.37525,2.30631c1.53753,1.52932 2.30631,3.98774 2.30631,7.37525zM135.1595,95.39269h8.70725v24.69107c0,3.38752 -0.76878,5.85005 -2.30631,7.3876c-1.52932,1.52932 -3.98774,2.29398 -7.37525,2.29398h-11.12456c-3.39574,0 -5.85827,-0.76466 -7.3876,-2.29398c-1.52932,-1.53753 -2.29398,-4.00006 -2.29398,-7.3876v-24.69107h8.70725v24.69107c0,1.94042 0.97021,2.91063 2.91063,2.91063h7.25192c1.94042,0 2.91063,-0.97021 2.91063,-2.91063zM193.73301,129.28432h-8.71957v-13.80085h-12.09887v13.80085h-8.70725v-33.89164h8.70725v13.31985h12.09887v-13.31985h8.71957zM205.58832,129.28432h-9.4349l12.82653,-33.89164h9.68156l12.82653,33.89164h-9.4349l-2.18297,-6.05561h-12.09887zM209.94193,116.93879h7.74525l-3.87262,-11.37121zM244.7953,119.12176l8.23859,-23.72908h9.4349l-12.82653,33.89164h-9.68156l-12.82653,-33.89164h9.4349zM291.75705,129.28432h-26.86172v-33.89164h26.86172v6.78326h-18.15447v6.5366h14.28184v6.77092h-14.28184v7.01759h18.15447zM334.8354,95.39269l5.80893,21.79276l5.08128,-21.79276h9.44724l-9.20057,33.89164h-9.20057l-5.80893,-21.05277l-5.80893,21.05277h-9.1882l-9.20057,-33.89164h9.4349l5.08125,21.79276l5.80893,-21.79276zM379.3768,104.59326c0,-1.9322 -0.97021,-2.89831 -2.91063,-2.89831h-8.22624c-1.9322,0 -2.89831,0.96611 -2.89831,2.89831v15.49051c0,1.94042 0.96611,2.91063 2.89831,2.91063h8.22624c1.94042,0 2.91063,-0.97021 2.91063,-2.91063zM388.08404,120.08376c0,3.38752 -0.76878,5.85005 -2.30631,7.3876c-1.52932,1.52932 -3.98774,2.29398 -7.37525,2.29398h-12.09887c-3.38752,0 -5.85005,-0.76466 -7.3876,-2.29398c-1.52932,-1.53753 -2.29398,-4.00006 -2.29398,-7.3876v-15.49051c0,-3.38752 0.76466,-5.84594 2.29398,-7.37525c1.53753,-1.53753 4.00006,-2.30631 7.3876,-2.30631h12.09887c3.38752,0 5.84594,0.76878 7.37525,2.30631c1.53753,1.52932 2.30631,3.98774 2.30631,7.37525zM422.4598,129.28432h-9.20057l-11.61787,-20.33745v20.33745h-8.70725v-33.89164h9.18824l11.61787,20.33745v-20.33745h8.71957z" fill="#c0c0c0" fill-rule="nonzero" stroke-width="1" stroke-linecap="square"/><path d="M68.30509,167.29174c-5.70394,0.50847 -10.43655,0.76269 -14.19788,0.76269c-2.50971,0 -4.35453,-0.58669 -5.53443,-1.76007c-1.17337,-1.1799 -1.76007,-3.0247 -1.76007,-5.53443v-12.28137c0,-2.68573 0.60625,-4.63485 1.81874,-5.84735c1.219,-1.219 3.17138,-1.82852 5.85711,-1.82852h13.81654v5.37799h-12.28137c-1.53192,0 -2.29785,0.76595 -2.29785,2.29785v12.28137c0,0.59321 0.16948,1.06256 0.50847,1.40805c0.34549,0.34549 0.78551,0.51823 1.32006,0.51823c0.54106,0 1.13102,-0.00651 1.76985,-0.01954c0.64536,-0.01304 1.31353,-0.03259 2.00452,-0.05866c0.691,-0.02607 1.38523,-0.05215 2.08275,-0.07823c0.70402,-0.02607 1.61338,-0.07496 2.7281,-0.14668c1.11471,-0.07823 2.5032,-0.16948 4.16549,-0.2738zM88.64858,148.09722c0,-1.53192 -0.7692,-2.29785 -2.30764,-2.29785h-6.52203c-1.53192,0 -2.29785,0.76595 -2.29785,2.29785v12.28137c0,1.53844 0.76595,2.30764 2.29785,2.30764h6.52203c1.53844,0 2.30764,-0.7692 2.30764,-2.30764zM95.55195,160.37857c0,2.68573 -0.60951,4.6381 -1.82852,5.85711c-1.21249,1.21249 -3.1616,1.81874 -5.84735,1.81874h-9.59236c-2.68573,0 -4.6381,-0.60625 -5.85711,-1.81874c-1.21249,-1.219 -1.81874,-3.17138 -1.81874,-5.85711v-12.28136c0,-2.68573 0.60625,-4.63485 1.81874,-5.84735c1.219,-1.219 3.17138,-1.82852 5.85711,-1.82852h9.59236c2.68573,0 4.63485,0.60952 5.84735,1.82852c1.219,1.21249 1.82852,3.1616 1.82852,5.84735zM122.80614,167.67308h-7.29451l-9.21104,-16.12417v16.12417h-6.90338v-26.87038h7.28471l9.21104,16.12418v-16.12418h6.91316zM150.44167,167.09618c-5.99075,0.63885 -11.49259,0.95827 -16.50552,0.95827c-2.50971,0 -4.35454,-0.58669 -5.53444,-1.76007c-1.17337,-1.1799 -1.76007,-3.0247 -1.76007,-5.53444v-12.28137c0,-2.68573 0.60625,-4.63485 1.81874,-5.84735c1.219,-1.219 3.17138,-1.82852 5.85711,-1.82852h13.81654v5.37799h-12.28137c-1.53192,0 -2.29786,0.76595 -2.29786,2.29786v12.28137c0,0.59321 0.16948,1.06256 0.50847,1.40805c0.34549,0.34549 0.81486,0.51823 1.40805,0.51823c2.93997,0 5.62569,-0.06519 8.05719,-0.19557v-5.56376h-4.98684v-4.60551h11.90001zM154.27962,140.80272h16.1144c2.68573,0 4.63484,0.60952 5.84734,1.82852c1.219,1.21249 1.82852,3.1616 1.82852,5.84735v3.46146c0,2.12511 -0.35202,3.77763 -1.05605,4.95752c-0.70402,1.17337 -1.822,1.94911 -3.35391,2.3272l4.79128,8.44835h-7.48029l-4.40994,-8.0572h-5.37799v8.0572h-6.90339zM171.16648,148.47857c0,-1.53192 -0.7692,-2.29785 -2.30764,-2.29785h-7.67586v8.05719h7.67586c1.53844,0 2.30764,-0.76595 2.30764,-2.29785zM186.70399,167.67308h-7.48029l10.1693,-26.87038h7.67586l10.1693,26.87038h-7.48029l-1.73073,-4.80108h-9.59236zM190.15568,157.88515h6.14068l-3.07034,-9.01548zM219.51927,167.67308h-6.90339v-21.49239h-8.06698v-5.37799h23.02757v5.37799h-8.05719zM247.53859,140.80272h6.90338v19.57587c0,2.68573 -0.60952,4.6381 -1.82852,5.85711c-1.21249,1.21249 -3.1616,1.81874 -5.84734,1.81874h-8.81991c-2.69224,0 -4.64462,-0.60625 -5.85711,-1.81874c-1.21249,-1.219 -1.81874,-3.17138 -1.81874,-5.85711v-19.57587h6.90338v19.57587c0,1.53844 0.7692,2.30764 2.30764,2.30764h5.74954c1.53844,0 2.30764,-0.7692 2.30764,-2.30764zM265.95821,162.29511h14.0121v5.37799h-20.91547v-26.87038h6.90338zM287.44939,167.67308h-7.48029l10.16929,-26.87038h7.67587l10.16929,26.87038h-7.48029l-1.73073,-4.80108h-9.59236zM290.9011,157.88515h6.14068l-3.07034,-9.01548zM320.26468,167.67308h-6.90338v-21.49239h-8.06699v-5.37799h23.02758v5.37799h-8.0572zM343.6785,167.67308h-13.81656v-5.37799h3.45169v-16.1144h-3.45169v-5.37799h13.81656v5.37799h-3.45172v16.1144h3.45172zM364.40331,148.09722c0,-1.53192 -0.7692,-2.29785 -2.30764,-2.29785h-6.52202c-1.53192,0 -2.29786,0.76595 -2.29786,2.29785v12.28137c0,1.53844 0.76595,2.30764 2.29786,2.30764h6.52202c1.53844,0 2.30764,-0.7692 2.30764,-2.30764zM371.30668,160.37857c0,2.68573 -0.60952,4.6381 -1.82852,5.85711c-1.21249,1.21249 -3.1616,1.81874 -5.84735,1.81874h-9.59236c-2.68573,0 -4.6381,-0.60625 -5.85711,-1.81874c-1.21249,-1.219 -1.81874,-3.17138 -1.81874,-5.85711v-12.28136c0,-2.68573 0.60625,-4.63485 1.81874,-5.84735c1.219,-1.219 3.17138,-1.82852 5.85711,-1.82852h9.59236c2.68573,0 4.63485,0.60952 5.84735,1.82852c1.219,1.21249 1.82852,3.1616 1.82852,5.84735zM398.56083,167.67308h-7.29451l-9.21104,-16.12417v16.12417h-6.90338v-26.87038h7.28472l9.21104,16.12418v-16.12418h6.91316zM402.35721,162.10934c7.01418,0.38462 11.75987,0.57689 14.23699,0.57689c0.59321,0 1.06256,-0.17275 1.40805,-0.51823c0.34549,-0.34549 0.51823,-0.81486 0.51823,-1.40805v-3.45169h-8.82967c-2.68573,0 -4.6381,-0.60625 -5.85711,-1.81874c-1.21249,-1.219 -1.81874,-3.17138 -1.81874,-5.85711v-1.15383c0,-2.68573 0.60625,-4.63485 1.81874,-5.84735c1.219,-1.219 3.17138,-1.82852 5.85711,-1.82852h13.46452v5.37799h-11.92935c-1.53844,0 -2.30764,0.76595 -2.30764,2.29785v0.77247c0,1.53192 0.7692,2.29785 2.30764,2.29785h6.90338c2.50971,0 4.35128,0.58994 5.52465,1.76985c1.1799,1.1799 1.76985,3.02145 1.76985,5.52465v1.91652c0,2.50971 -0.58994,4.35454 -1.76985,5.53444c-1.17337,1.17337 -3.01494,1.76007 -5.52465,1.76007c-1.30376,0 -2.68573,-0.02607 -4.14594,-0.07823l-3.52991,-0.14668c-2.60751,-0.13037 -5.30627,-0.30965 -8.09631,-0.53781z" fill="#4d7c91" fill-rule="nonzero" stroke-width="1" stroke-linecap="square"/><path d="M529.47703,395.08491c-21.02102,35.87545 -148.71761,27.35583 -305.08688,27.35583c-82.22378,0 -199.25706,-1.41956 -250.98278,-15.33639c-46.64379,-12.54953 -38.91204,-63.15122 -33.06363,-80.63389c15.01502,-44.88446 120.35872,-33.14921 276.72798,-33.14921c55.673,0 216.46745,-63.13836 261.44446,-58.14377c81.35035,9.03376 63.618,138.30616 50.96085,159.90743z" data-paper-data="{&quot;index&quot;:null}" fill="#588fa6" fill-rule="nonzero" stroke-width="0" stroke-linecap="butt"/><g data-paper-data="{&quot;index&quot;:null}" fill="#4f8095"><path d="M270.95644,326.52666c-0.61848,6.44366 -2.71453,13.09271 -14.57192,11.95461c-11.85737,-1.1381 -1.45375,-11.39995 -10.87373,-12.93171c-5.00146,0.40868 -3.633,4.79298 -5.57755,7.2639c-2.60362,3.60831 -15.39703,1.03249 -19.62462,0.62673c-9.00877,-0.86468 -24.85399,-2.38551 -24.85399,-2.38551v0c-7.8648,-0.75487 -13.73902,-6.59046 -13.12056,-13.03412l4.47923,-46.66772v0c0.29699,-3.09437 2.08215,-5.91796 4.96272,-7.84966c2.88058,-1.93172 6.62061,-2.81334 10.39746,-2.45082c0,0 12.4818,1.19802 24.23295,2.32591c6.25306,0.60017 15.80669,0.54039 19.2145,2.25011c3.0011,1.50568 -0.67008,6.28283 4.42801,7.9745c8.2038,0.21941 4.40135,-7.53293 12.26612,-6.77807c7.86477,0.75486 13.73909,6.59045 13.12063,13.03411l-4.47923,46.66772z" fill-rule="evenodd" stroke-width="1" stroke-linecap="square"/><path d="M121.42201,324.20226c-36.91983,-3.5436 -42.88322,-21.12792 -41.14667,-39.22052c1.73655,-18.09262 11.31754,-34.18494 48.23742,-30.64132c36.91987,3.54363 74.77624,24.18904 73.03969,42.28165c-1.73655,18.09261 -43.21058,31.12381 -80.13045,27.58019z" fill-rule="nonzero" stroke-width="0" stroke-linecap="butt"/><path d="M213.83079,332.92827l-96.83764,-9.29459l6.68163,-69.61409l96.83764,9.29459z" fill-rule="nonzero" stroke-width="0" stroke-linecap="butt"/></g></g></g></svg>