<svg version="1.1" xmlns="http://www.w3.org/2000/svg" xmlns:xlink="http://www.w3.org/1999/xlink" width="12.47716" height="81.54955" viewBox="0,0,12.47716,81.54955"><g transform="translate(-233.76142,-144.43333)"><g data-paper-data="{&quot;isPaintingLayer&quot;:true}" stroke="none" stroke-linejoin="miter" stroke-miterlimit="10" stroke-dasharray="" stroke-dashoffset="0" style="mix-blend-mode: normal"><path d="M243.5,144.43333z" fill="#c7c7c7" fill-rule="nonzero" stroke-width="0" stroke-linecap="butt"/><g><path d="M233.8497,210.79026v-26.27389h12.36363v26.27389z" fill="#c7c7c7" fill-rule="nonzero" stroke-width="0" stroke-linecap="butt"/><path d="M243.40627,183.71154z" fill="#c7c7c7" fill-rule="nonzero" stroke-width="0" stroke-linecap="butt"/><path d="M246.194,222.11917c0,2.13386 -0.92773,3.86371 -2.07214,3.86371h-8.2883c-1.14441,0 -2.07214,-1.72985 -2.07214,-3.86371c0,-2.13386 0,-8.04611 0,-9.74269c0,-3.18831 0,-6.57486 0,-6.57486c0,-1.02473 0.21832,-2.00746 0.60692,-2.73203c0.3886,-0.72457 0.91565,-1.13164 1.46522,-1.13164v0h8.2883c1.14441,0 2.07214,1.72982 2.07214,3.86369v0c0,0 0,4.2991 0,6.74336c0,1.14703 0,6.35706 0,9.57419z" fill="#c7c7c7" fill-rule="evenodd" stroke-width="1" stroke-linecap="square"/><path d="M246.23858,185.72177c0,10.01706 -2.99378,20.83077 -6.20707,20.83077c-3.21329,0 -6.20707,-10.71012 -6.20707,-20.72718c0,-10.01706 2.99378,-12.17759 6.20707,-12.17759c3.21329,0 6.20707,2.05695 6.20707,12.074z" fill="#c7c7c7" fill-rule="nonzero" stroke-width="0" stroke-linecap="butt"/><path d="M242.59091,199.81532c0,1.45602 -1.15999,2.63636 -2.59091,2.63636c-1.43092,0 -2.59091,-1.18034 -2.59091,-2.63636c0,-1.45602 1.15999,-2.63636 2.59091,-2.63636c1.43092,0 2.59091,1.18034 2.59091,2.63636z" fill="#b8b8b8" fill-rule="nonzero" stroke-width="0" stroke-linecap="butt"/><path d="M233.79367,221.09161v-1.36364h12.36364v1.36364z" fill="#b8b8b8" fill-rule="nonzero" stroke-width="0" stroke-linecap="butt"/></g></g></g></svg>