<svg version="1.1" xmlns="http://www.w3.org/2000/svg" xmlns:xlink="http://www.w3.org/1999/xlink" width="633.21516" height="419.43898" viewBox="0,0,633.21516,419.43898"><g transform="translate(28.10091,29.71949)"><g data-paper-data="{&quot;isPaintingLayer&quot;:true}" stroke-linejoin="miter" stroke-miterlimit="10" stroke-dasharray="" stroke-dashoffset="0" style="mix-blend-mode: normal"><path d="M-28.10091,380.19042v-409.90991h534.53453v409.90991z" fill="#b86161" fill-rule="nonzero" stroke="none" stroke-width="0" stroke-linecap="butt"/><text transform="translate(564.08291,190.21057) scale(0.20559,0.20559)" font-size="40" xml:space="preserve" fill="#353535" fill-rule="nonzero" stroke="none" stroke-width="1" stroke-linecap="butt" stroke-linejoin="miter" stroke-miterlimit="10" stroke-dasharray="" stroke-dashoffset="0" font-family="Sans Serif" font-weight="normal" text-anchor="start" style="mix-blend-mode: normal"><tspan x="0" dy="0"> </tspan></text><text transform="translate(-2.411,196.31131) scale(0.24741,0.08738)" font-size="40" xml:space="preserve" fill="#353535" fill-rule="nonzero" stroke="none" stroke-width="1" stroke-linecap="butt" stroke-linejoin="miter" stroke-miterlimit="10" stroke-dasharray="" stroke-dashoffset="0" font-family="Sans Serif" font-weight="normal" text-anchor="start" style="mix-blend-mode: normal"><tspan x="0" dy="0"> </tspan></text><text transform="translate(200.36691,197.79889) scale(0.24741,0.08738)" font-size="40" xml:space="preserve" fill="#353535" fill-rule="nonzero" stroke="none" stroke-width="1" stroke-linecap="butt" stroke-linejoin="miter" stroke-miterlimit="10" stroke-dasharray="" stroke-dashoffset="0" font-family="Sans Serif" font-weight="normal" text-anchor="start" style="mix-blend-mode: normal"><tspan x="0" dy="0"> </tspan></text><text transform="translate(404.94997,198.64894) scale(0.24741,0.08738)" font-size="40" xml:space="preserve" fill="#353535" fill-rule="nonzero" stroke="none" stroke-width="1" stroke-linecap="butt" stroke-linejoin="miter" stroke-miterlimit="10" stroke-dasharray="" stroke-dashoffset="0" font-family="Sans Serif" font-weight="normal" text-anchor="start" style="mix-blend-mode: normal"><tspan x="0" dy="0"> </tspan></text><text transform="translate(-2.411,190.3053) scale(0.24741,0.08738)" font-size="40" xml:space="preserve" fill="#353535" fill-rule="nonzero" stroke="none" stroke-width="1" stroke-linecap="butt" stroke-linejoin="miter" stroke-miterlimit="10" stroke-dasharray="" stroke-dashoffset="0" font-family="Sans Serif" font-weight="normal" text-anchor="start" style="mix-blend-mode: normal"><tspan x="0" dy="0"> </tspan></text><text transform="translate(200.36691,191.79286) scale(0.24741,0.08738)" font-size="40" xml:space="preserve" fill="#353535" fill-rule="nonzero" stroke="none" stroke-width="1" stroke-linecap="butt" stroke-linejoin="miter" stroke-miterlimit="10" stroke-dasharray="" stroke-dashoffset="0" font-family="Sans Serif" font-weight="normal" text-anchor="start" style="mix-blend-mode: normal"><tspan x="0" dy="0"> </tspan></text><text transform="translate(404.94997,192.64293) scale(0.24741,0.08738)" font-size="40" xml:space="preserve" fill="#353535" fill-rule="nonzero" stroke="none" stroke-width="1" stroke-linecap="butt" stroke-linejoin="miter" stroke-miterlimit="10" stroke-dasharray="" stroke-dashoffset="0" font-family="Sans Serif" font-weight="normal" text-anchor="start" style="mix-blend-mode: normal"><tspan x="0" dy="0"> </tspan></text><g fill="#a85959" stroke="none"><path d="M-24.24444,389.71949v-230.85059h531.84936v230.85059z" fill-rule="nonzero" stroke-width="0" stroke-linecap="butt"/><g fill-rule="evenodd" stroke-width="1" stroke-linecap="square"><path d="M-24.22913,122.58794c59.82883,-25.97779 119.65771,25.97779 179.48654,0v46.76004c-59.82883,25.97779 -119.65771,-25.97779 -179.48654,0z"/><path d="M151.00634,123.5231c59.82883,-25.97779 119.65771,25.97779 179.48654,0v46.76005c-39.7853,17.27486 -79.57063,0.08713 -119.35594,-5.72895c-20.04353,-2.93009 -40.08707,-2.97399 -60.13059,5.72895z"/><path d="M328.61437,124.24553c59.82883,-25.97779 119.65771,25.97779 179.48654,0v46.76004c-59.82883,25.97779 -119.65771,-25.97779 -179.48654,0z"/></g></g><path d="M602.862,154.54397c-1.24388,0 -2.25225,-0.33612 -2.25225,-0.75075c0,-0.41463 1.00837,-0.75075 2.25225,-0.75075c1.24388,0 2.25225,0.33612 2.25225,0.75075c0,0.41463 -1.00837,0.75075 -2.25225,0.75075z" fill="#4f8095" fill-rule="nonzero" stroke="none" stroke-width="0" stroke-linecap="butt"/><path d="M390.64681,269.49172z" fill="#4f8095" fill-rule="nonzero" stroke="none" stroke-width="0" stroke-linecap="butt"/><g fill-rule="nonzero" stroke="none" stroke-width="0"><path d="M328.30413,303.58314c-7.83773,21.7925 -73.23712,9.35939 -123.9546,-7.31287c-50.71749,-16.67226 -73.43124,-23.08881 -69.52188,-34.98119c1.22929,-3.73953 6.45069,-5.92003 14.60892,-6.63386c17.78644,-1.55627 49.53223,3.8589 84.30173,15.28861c50.71749,16.67226 98.80245,21.85954 94.56583,33.6393z" fill="#944e4e" stroke-linecap="butt"/><path d="M145.42381,263.81029c-19.50894,-7.94045 -23.78198,-24.2268 -15.82465,-31.53518c11.63481,-10.68595 33.09912,8.90882 56.90048,5.05572c15.88659,-3.28417 43.61062,-20.71183 66.35329,-37.64979c12.74334,-9.4908 23.92271,-18.1612 30.57927,-24.77016c18.53629,-18.40379 71.85507,-3.78436 71.41931,0.72445c-1.54362,15.9717 -42.51841,88.00027 -42.51841,88.00027c0,0 26.70222,5.31407 17.46054,27.67088c-5.30289,9.12909 -14.70141,13.23566 -42.45286,9.18817c-25.67662,-3.74487 -62.3796,-12.4578 -89.51329,-20.06299c-31.9296,-8.94941 -52.40368,-16.62136 -52.40368,-16.62136c0,0 17.10212,6.96083 0.00001,0z" fill="#c0c0c0" stroke-linecap="round"/><path d="M162.02713,200.45937l68.83836,-34.0695l47.14973,1.72687l-11.55715,9.81183l-26.85773,-0.90624l-0.03858,22.30774c0,0 -24.81296,18.11097 -48.44547,27.31515c-15.16003,5.90439 -25.07737,0.86725 -25.07737,0.86725z" fill="#c0c0c0" stroke-linecap="round"/><path d="M260.74791,183.00526l-14.54218,10.53692l0.09349,-10.51832z" fill="#c0c0c0" stroke-linecap="round"/><g fill="#c0c0c0" stroke-linecap="round"><path d="M176.54189,187.04872l-0.13133,-16.16249l9.97502,-0.06808l-0.16139,11.43409z"/><path d="M204.98412,159.64479l-0.38818,13.47336l-11.85758,6.28793l0.64948,-19.98445z"/><path d="M223.88725,146.82522l-0.86227,17.10091l-11.5027,5.45825l1.0336,-22.73641z"/></g><path d="M183.60454,210.96671c0,4.69442 -1.35914,8.5 -3.03572,8.5c-1.67658,0 -3.03571,-3.80558 -3.03571,-8.5c0,-4.69442 1.35913,-8.5 3.03571,-8.5c1.67658,0 3.03572,3.80558 3.03572,8.5z" fill="#a85959" stroke-linecap="butt"/><path d="M201.93787,201.30004c0,4.69442 -1.35914,8.5 -3.03572,8.5c-1.67658,0 -3.03571,-3.80558 -3.03571,-8.5c0,-4.69442 1.35913,-8.5 3.03571,-8.5c1.67658,0 3.03572,3.80558 3.03572,8.5z" fill="#a85959" stroke-linecap="butt"/><path d="M218.93787,191.96671c0,4.69442 -1.35914,8.5 -3.03572,8.5c-1.67658,0 -3.03571,-3.80558 -3.03571,-8.5c0,-4.69442 1.35913,-8.5 3.03571,-8.5c1.67658,0 3.03572,3.80558 3.03572,8.5z" fill="#a85959" stroke-linecap="butt"/></g><text transform="translate(86.90039,76.46048) scale(0.95504,0.95504)" font-size="40" xml:space="preserve" fill="#c0c0c0" fill-rule="nonzero" stroke="#c0c0c0" stroke-width="1" stroke-linecap="butt" stroke-linejoin="miter" stroke-miterlimit="10" stroke-dasharray="" stroke-dashoffset="0" font-family="Sans Serif" font-weight="normal" text-anchor="start" style="mix-blend-mode: normal"><tspan x="0" dy="0">Error, server full!</tspan></text><text transform="translate(100.22005,343.42641) scale(0.5,0.5)" font-size="40" xml:space="preserve" fill="#c0c0c0" fill-rule="nonzero" stroke="none" stroke-width="1" stroke-linecap="butt" stroke-linejoin="miter" stroke-miterlimit="10" stroke-dasharray="" stroke-dashoffset="0" font-family="Sans Serif" font-weight="normal" text-anchor="start" style="mix-blend-mode: normal"><tspan x="0" dy="0">REFRESH PAGE TO TRY AGAIN</tspan></text></g></g></svg>