<svg version="1.1" xmlns="http://www.w3.org/2000/svg" xmlns:xlink="http://www.w3.org/1999/xlink" width="31.97543" height="18.29304" viewBox="0,0,31.97543,18.29304"><g transform="translate(-224.01228,-170.85348)"><g data-paper-data="{&quot;isPaintingLayer&quot;:true}" fill="#c0c0c0" fill-rule="nonzero" stroke="none" stroke-width="0" stroke-linecap="butt" stroke-linejoin="miter" stroke-miterlimit="10" stroke-dasharray="" stroke-dashoffset="0" style="mix-blend-mode: normal"><g><path d="M247.13666,174.26883c4.33601,0 8.85106,2.62219 8.85106,5.85681c0,3.23462 -4.37217,5.92823 -8.7082,5.92823c-0.05031,0 -0.2082,-2.69361 -0.2082,-5.92823c0,-3.23462 -0.05639,-5.85681 0.06535,-5.85681z"/><path d="M243.6108,185.98244h-11.01142v-11.7136h11.01142z"/><path d="M236.01644,184.84887c0,0 -9.01942,3.53137 -10.76111,4.21667c-0.5474,0.21538 -0.91528,-0.06703 -0.91528,-0.06703c0,0 -0.32776,-0.09936 -0.32776,-0.82885c0,-2.12661 0,-12.67943 0,-16.388c0,-0.80824 0.32776,-0.79976 0.32776,-0.79976c0,0 0.22713,-0.26491 0.79281,-0.03377c1.76439,0.72093 10.90135,4.45429 10.90135,4.45429z"/></g></g></g></svg>