<svg version="1.1" xmlns="http://www.w3.org/2000/svg" xmlns:xlink="http://www.w3.org/1999/xlink" width="12.7693" height="63.00297" viewBox="0,0,12.7693,63.00297"><g transform="translate(-233.67531,-144.43338)"><g data-paper-data="{&quot;isPaintingLayer&quot;:true}" stroke="none" stroke-linejoin="miter" stroke-miterlimit="10" stroke-dasharray="" stroke-dashoffset="0" style="mix-blend-mode: normal"><path d="M243.10004,144.43338z" fill="#c7c7c7" fill-rule="nonzero" stroke-width="0" stroke-linecap="butt"/><g><path d="M244.09469,207.43635h-8.2883c-1.14441,0 -2.07214,-1.13234 -2.07214,-2.52914c0,-1.3968 1.30004,-0.5967 1.4,-2.04412c-0.21159,-0.92574 -1.11429,-0.36037 -1.32857,-0.91394c-0.24332,-0.62859 -0.07143,-2.30884 -0.07143,-3.4194c0,-2.08703 0,-4.30383 0,-4.30383c0,-0.67078 0.21832,-1.31406 0.60692,-1.78836c0.3886,-0.4743 0.91565,-0.74076 1.46522,-0.74076v0h8.2883c1.14441,0 2.07214,1.13232 2.07214,2.52913v0c0,0 0,2.81415 0,4.41413c0,0.75083 0.2372,3.04574 -0.44177,3.44298c-0.46768,0.30047 -1.21612,-0.01441 -1.37252,0.85885c0.11045,1.68361 2.09207,0.0261 2.09207,2.132c0,2.1059 -1.20551,2.36246 -2.34992,2.36246z" fill="#c7c7c7" fill-rule="evenodd" stroke-width="1" stroke-linecap="square"/><path d="M246.21141,181.08184c0,6.55706 -2.99378,13.6356 -6.20707,13.6356c-3.21329,0 -6.20707,-7.01073 -6.20707,-13.56779c0,-6.55706 2.99378,-7.97132 6.20707,-7.97132c3.21329,0 6.20707,1.34646 6.20707,7.90351z" fill="#c7c7c7" fill-rule="nonzero" stroke-width="0" stroke-linecap="butt"/><path d="M233.82253,197.49143v-17.1986h12.36363v17.1986z" fill="#c7c7c7" fill-rule="nonzero" stroke-width="0" stroke-linecap="butt"/><path d="M234.68536,203.80946v-1.5h10.27778v1.5z" fill="#b8b8b8" fill-rule="nonzero" stroke-width="0" stroke-linecap="butt"/></g></g></g></svg>