<svg version="1.1" xmlns="http://www.w3.org/2000/svg" xmlns:xlink="http://www.w3.org/1999/xlink" width="12.41414" height="73.07144" viewBox="0,0,12.41414,73.07144"><g transform="translate(-233.79293,-172.88096)"><g data-paper-data="{&quot;isPaintingLayer&quot;:true}" fill-rule="nonzero" stroke="none" stroke-width="0" stroke-linecap="butt" stroke-linejoin="miter" stroke-miterlimit="10" stroke-dasharray="" stroke-dashoffset="0" style="mix-blend-mode: normal"><path d="M244.34349,205.2735z" fill="#c7c7c7"/><path d="M233.81819,234.19011v-50.44056h12.36363v50.44056z" fill="#c7c7c7"/><path d="M243.37476,182.94473z" fill="#c7c7c7"/><path d="M246.20707,184.95496c0,10.01706 -2.99378,20.83077 -6.20707,20.83077c-3.21329,0 -6.20707,-10.71012 -6.20707,-20.72718c0,-10.01706 2.99378,-12.17759 6.20707,-12.17759c3.21329,0 6.20707,2.05695 6.20707,12.074z" fill="#c7c7c7"/><g><path d="M244.25119,196.18005c0,2.36452 -1.84837,4.28135 -4.12844,4.28135c-2.28007,0 -4.12844,-1.91682 -4.12844,-4.28135c0,-2.36452 1.84837,-4.28135 4.12844,-4.28135c2.28007,0 4.12844,1.91682 4.12844,4.28135z" fill="#b8b8b8"/><path d="M244.45506,193.78454c0,2.44897 -1.98528,4.43425 -4.43425,4.43425c-2.44897,0 -4.43425,-1.98528 -4.43425,-4.43425c0,-2.44897 1.98528,-4.43425 4.43425,-4.43425c2.44897,0 4.43425,1.98528 4.43425,4.43425z" fill="#c7c7c7"/></g><path d="M240,245.9524c-3.21329,0 -6.20707,-2.16053 -6.20707,-12.17759c0,-10.01706 2.99378,-20.72718 6.20707,-20.72718c3.21329,0 6.20707,10.81371 6.20707,20.83077c0,10.01705 -2.99378,12.074 -6.20707,12.074z" data-paper-data="{&quot;index&quot;:null}" fill="#c7c7c7"/><path d="M236.12094,231.44085v-2h7.4v2z" fill="#b8b8b8"/><path d="M236.32094,228.32656v-2h7.4v2z" fill="#b8b8b8"/><path d="M243.6664,178.51357c0,1.65685 -1.52087,1.54545 -3.50909,1.54545c-1.98823,0 -3.69091,0.1114 -3.69091,-1.54545c0,-1.65685 1.61177,-3 3.6,-3c1.98823,0 3.6,1.34315 3.6,3z" fill="#b8b8b8"/></g></g></svg>