<svg version="1.1" xmlns="http://www.w3.org/2000/svg" xmlns:xlink="http://www.w3.org/1999/xlink" width="632.38143" height="419.43887" viewBox="0,0,632.38143,419.43887"><g transform="translate(27.26717,24.95481)"><g data-paper-data="{&quot;isPaintingLayer&quot;:true}" stroke-linejoin="miter" stroke-miterlimit="10" stroke-dasharray="" stroke-dashoffset="0" style="mix-blend-mode: normal"><path d="M-27.26717,384.95511v-409.90991h534.53453v409.90991z" fill="#619db7" fill-rule="nonzero" stroke="none" stroke-width="0" stroke-linecap="butt"/><path d="M103.18103,37.02984h17.59375c2.875,0 4.98438,0.65104 6.32813,1.95313c1.35416,1.30209 2.03125,3.29166 2.03125,5.96875c0,1.76041 -0.38021,3.19271 -1.14062,4.29688c-0.76041,1.09375 -1.69791,1.85938 -2.8125,2.29688c2.375,0.64584 3.98959,2.22916 4.84375,4.75c0.29166,0.91666 0.4375,1.97396 0.4375,3.17188c0,2.875 -0.67709,4.98959 -2.03125,6.34375c-1.34375,1.34375 -3.45312,2.01563 -6.32812,2.01563h-18.92187zM122.54041,58.13922c0,-1.75 -0.88021,-2.625 -2.64062,-2.625h-8.79687v6.15625h8.79688c1.76041,0 2.64063,-0.88021 2.64063,-2.64062zM121.22791,45.82672c0,-1.76041 -0.88021,-2.64062 -2.64062,-2.64062h-7.48437v6.15625h7.48438c1.76041,0 2.64063,-0.88021 2.64063,-2.64062zM139.92094,67.82667h-8.57812l11.65625,-30.79687h8.79688l11.67188,30.79688h-8.59375l-1.96875,-5.5h-11zM143.87403,56.60797h7.04688l-3.51562,-10.34375zM177.53402,67.82667h-7.90625v-24.64062h-9.25v-6.15625h26.40625v6.15625h-9.25zM204.81398,67.82667h-7.90625v-24.64062h-9.25v-6.15625h26.40627v6.15625h-9.25002zM225.06267,61.67047h16.0625v6.15625h-23.98437v-30.79687h7.92188zM268.62255,67.82667h-24.42187v-30.79687h24.42188v6.15625h-16.5v5.9375h12.98438v6.15625h-12.98437v6.39063h16.5zM271.21872,61.45172c8.03125,0.4375 13.47396,0.65625 16.32813,0.65625c0.66666,0 1.19791,-0.19791 1.59375,-0.59375c0.39584,-0.39584 0.59375,-0.93229 0.59375,-1.60937v-3.95312h-10.10937c-3.08334,0 -5.32291,-0.69791 -6.71875,-2.09375c-1.39584,-1.39584 -2.09375,-3.63541 -2.09375,-6.71875v-1.3125c0,-3.08334 0.69791,-5.31771 2.09375,-6.70312c1.39584,-1.39584 3.63541,-2.09375 6.71875,-2.09375h15.4375v6.15625h-13.6875c-1.76041,0 -2.64062,0.88021 -2.64062,2.64063v0.875c0,1.76041 0.88021,2.64063 2.64063,2.64063h7.92188c2.875,0 4.98438,0.67709 6.32813,2.03125c1.35417,1.34375 2.03125,3.45313 2.03125,6.32813v2.20313c0,2.875 -0.67708,4.98959 -2.03125,6.34375c-1.34375,1.34375 -3.45312,2.01563 -6.32812,2.01563c-1.48959,0 -3.07291,-0.02604 -4.75,-0.07812l-4.04687,-0.1875c-2.98959,-0.14584 -6.08334,-0.34896 -9.28125,-0.60937zM328.46432,67.82667h-7.92187v-12.54687h-11v12.54688h-7.92187v-30.79687h7.92188v12.09375h11v-12.09375h7.92188zM348.2562,67.82667h-15.84375v-6.15625h3.96875v-18.48437h-3.96875v-6.15625h15.84375v6.15625h-3.95312v18.48438h3.95313zM352.22053,37.02984h18.48438c3.07292,0 5.30729,0.69791 6.70313,2.09375c1.39583,1.38541 2.09375,3.61979 2.09375,6.70313v4.40625c0,3.07291 -0.69792,5.30729 -2.09375,6.70313c-1.39583,1.39584 -3.63021,2.09375 -6.70312,2.09375h-10.5625v8.79688h-7.92187zM371.5799,45.82672c0,-1.76041 -0.88021,-2.64062 -2.64062,-2.64062h-8.79687v9.6875h8.79688c1.76042,0 2.64063,-0.88021 2.64063,-2.64062z" fill="#c0c0c0" fill-rule="nonzero" stroke="none" stroke-width="1" stroke-linecap="square"/><text transform="translate(564.08291,190.21059) scale(0.20559,0.20559)" font-size="40" xml:space="preserve" fill="#353535" fill-rule="nonzero" stroke="none" stroke-width="1" stroke-linecap="butt" stroke-linejoin="miter" stroke-miterlimit="10" stroke-dasharray="" stroke-dashoffset="0" font-family="Sans Serif" font-weight="normal" text-anchor="start" style="mix-blend-mode: normal"><tspan x="0" dy="0"> </tspan></text><text transform="translate(-2.41099,196.31133) scale(0.24741,0.08738)" font-size="40" xml:space="preserve" fill="#353535" fill-rule="nonzero" stroke="none" stroke-width="1" stroke-linecap="butt" stroke-linejoin="miter" stroke-miterlimit="10" stroke-dasharray="" stroke-dashoffset="0" font-family="Sans Serif" font-weight="normal" text-anchor="start" style="mix-blend-mode: normal"><tspan x="0" dy="0"> </tspan></text><text transform="translate(200.36693,197.79891) scale(0.24741,0.08738)" font-size="40" xml:space="preserve" fill="#353535" fill-rule="nonzero" stroke="none" stroke-width="1" stroke-linecap="butt" stroke-linejoin="miter" stroke-miterlimit="10" stroke-dasharray="" stroke-dashoffset="0" font-family="Sans Serif" font-weight="normal" text-anchor="start" style="mix-blend-mode: normal"><tspan x="0" dy="0"> </tspan></text><text transform="translate(404.94995,198.64896) scale(0.24741,0.08738)" font-size="40" xml:space="preserve" fill="#353535" fill-rule="nonzero" stroke="none" stroke-width="1" stroke-linecap="butt" stroke-linejoin="miter" stroke-miterlimit="10" stroke-dasharray="" stroke-dashoffset="0" font-family="Sans Serif" font-weight="normal" text-anchor="start" style="mix-blend-mode: normal"><tspan x="0" dy="0"> </tspan></text><text transform="translate(-2.41099,190.30532) scale(0.24741,0.08738)" font-size="40" xml:space="preserve" fill="#353535" fill-rule="nonzero" stroke="none" stroke-width="1" stroke-linecap="butt" stroke-linejoin="miter" stroke-miterlimit="10" stroke-dasharray="" stroke-dashoffset="0" font-family="Sans Serif" font-weight="normal" text-anchor="start" style="mix-blend-mode: normal"><tspan x="0" dy="0"> </tspan></text><text transform="translate(200.36693,191.79288) scale(0.24741,0.08738)" font-size="40" xml:space="preserve" fill="#353535" fill-rule="nonzero" stroke="none" stroke-width="1" stroke-linecap="butt" stroke-linejoin="miter" stroke-miterlimit="10" stroke-dasharray="" stroke-dashoffset="0" font-family="Sans Serif" font-weight="normal" text-anchor="start" style="mix-blend-mode: normal"><tspan x="0" dy="0"> </tspan></text><text transform="translate(404.94995,192.64295) scale(0.24741,0.08738)" font-size="40" xml:space="preserve" fill="#353535" fill-rule="nonzero" stroke="none" stroke-width="1" stroke-linecap="butt" stroke-linejoin="miter" stroke-miterlimit="10" stroke-dasharray="" stroke-dashoffset="0" font-family="Sans Serif" font-weight="normal" text-anchor="start" style="mix-blend-mode: normal"><tspan x="0" dy="0"> </tspan></text><g fill="#5a91a9" stroke="none"><path d="M-23.41077,394.48407v-230.85059h531.84936v230.85059z" fill-rule="nonzero" stroke-width="0" stroke-linecap="butt"/><g fill-rule="evenodd" stroke-width="1" stroke-linecap="square"><path d="M-23.39546,127.35253c59.82883,-25.97779 119.65771,25.97779 179.48654,0v46.76004c-59.82883,25.97779 -119.65771,-25.97779 -179.48654,0z"/><path d="M151.84,128.28769c59.82883,-25.97779 119.65771,25.97779 179.48654,0v46.76005c-39.7853,17.27486 -79.57063,0.08713 -119.35594,-5.72895c-20.04353,-2.93009 -40.08707,-2.97399 -60.13059,5.72895z"/><path d="M329.44802,129.01012c59.82883,-25.97779 119.65771,25.97779 179.48654,0v46.76004c-59.82883,25.97779 -119.65771,-25.97779 -179.48654,0z"/></g></g><path d="M602.862,154.54398c-1.24388,0 -2.25225,-0.33612 -2.25225,-0.75075c0,-0.41463 1.00837,-0.75075 2.25225,-0.75075c1.24388,0 2.25225,0.33612 2.25225,0.75075c0,0.41463 -1.00837,0.75075 -2.25225,0.75075z" fill="#4f8095" fill-rule="nonzero" stroke="none" stroke-width="0" stroke-linecap="butt"/><path d="M390.6468,269.49172z" fill="#4f8095" fill-rule="nonzero" stroke="none" stroke-width="0" stroke-linecap="butt"/><g fill-rule="nonzero" stroke="none" stroke-width="0"><path d="M328.30414,303.58315c-7.83773,21.7925 -73.23712,9.35939 -123.9546,-7.31287c-50.71749,-16.67226 -73.43124,-23.08881 -69.52188,-34.98119c1.22929,-3.73953 6.45069,-5.92003 14.60892,-6.63386c17.78644,-1.55627 49.53223,3.8589 84.30173,15.28861c50.71749,16.67226 98.80245,21.85954 94.56583,33.6393z" fill="#4f8095" stroke-linecap="butt"/><path d="M145.42382,263.81032c-19.50894,-7.94045 -23.78198,-24.2268 -15.82465,-31.53518c11.63481,-10.68595 33.09912,8.90882 56.90048,5.05572c15.88659,-3.28417 43.61062,-20.71183 66.35329,-37.64979c12.74334,-9.4908 23.92271,-18.1612 30.57927,-24.77016c18.53629,-18.40379 71.85507,-3.78436 71.41931,0.72445c-1.54362,15.9717 -42.51841,88.00027 -42.51841,88.00027c0,0 26.70222,5.31407 17.46054,27.67088c-5.30289,9.12909 -14.70141,13.23566 -42.45286,9.18817c-25.67662,-3.74487 -62.3796,-12.4578 -89.51329,-20.06299c-31.9296,-8.94941 -52.40368,-16.62136 -52.40368,-16.62136c0,0 17.10212,6.96083 0.00001,0z" fill="#c0c0c0" stroke-linecap="round"/><path d="M162.02714,200.4594l68.83836,-34.0695l47.14973,1.72687l-11.55715,9.81183l-26.85773,-0.90624l-0.03858,22.30774c0,0 -24.81296,18.11097 -48.44547,27.31515c-15.16003,5.90439 -25.07737,0.86725 -25.07737,0.86725z" fill="#c0c0c0" stroke-linecap="round"/><path d="M260.74791,183.00528l-14.54218,10.53692l0.09349,-10.51832z" fill="#c0c0c0" stroke-linecap="round"/><g fill="#c0c0c0" stroke-linecap="round"><path d="M176.54192,187.04875l-0.13133,-16.16249l9.97502,-0.06808l-0.16139,11.43409z"/><path d="M204.98414,159.6448l-0.38818,13.47336l-11.85758,6.28793l0.64948,-19.98445z"/><path d="M223.88728,146.82523l-0.86227,17.10091l-11.5027,5.45825l1.0336,-22.73641z"/></g><path d="M183.60456,210.96674c0,4.69442 -1.35914,8.5 -3.03572,8.5c-1.67658,0 -3.03571,-3.80558 -3.03571,-8.5c0,-4.69442 1.35913,-8.5 3.03571,-8.5c1.67658,0 3.03572,3.80558 3.03572,8.5z" fill="#5a91a9" stroke-linecap="butt"/><path d="M201.9379,201.30007c0,4.69442 -1.35914,8.5 -3.03572,8.5c-1.67658,0 -3.03571,-3.80558 -3.03571,-8.5c0,-4.69442 1.35913,-8.5 3.03571,-8.5c1.67658,0 3.03572,3.80558 3.03572,8.5z" fill="#5a91a9" stroke-linecap="butt"/><path d="M218.9379,191.96674c0,4.69442 -1.35914,8.5 -3.03572,8.5c-1.67658,0 -3.03571,-3.80558 -3.03571,-8.5c0,-4.69442 1.35913,-8.5 3.03571,-8.5c1.67658,0 3.03572,3.80558 3.03572,8.5z" fill="#5a91a9" stroke-linecap="butt"/></g><text transform="translate(136.06546,30.29247) scale(0.66251,0.66251)" font-size="40" xml:space="preserve" fill="#c0c0c0" fill-rule="nonzero" stroke="none" stroke-width="1" stroke-linecap="butt" stroke-linejoin="miter" stroke-miterlimit="10" stroke-dasharray="" stroke-dashoffset="0" font-family="Marker" font-weight="normal" text-anchor="start" style="mix-blend-mode: normal"><tspan x="0" dy="0">POGGERSMEOW'S</tspan></text><text transform="translate(170.70234,91.96255) scale(0.57795,0.57795)" font-size="40" xml:space="preserve" fill="#c0c0c0" fill-rule="nonzero" stroke="none" stroke-width="1" stroke-linecap="butt" stroke-linejoin="miter" stroke-miterlimit="10" stroke-dasharray="" stroke-dashoffset="0" font-family="Marker" font-weight="normal" text-anchor="start" style="mix-blend-mode: normal"><tspan x="0" dy="0">MULTIPLAYER</tspan></text><text transform="translate(162.94004,343.42642) scale(0.5,0.5)" font-size="40" xml:space="preserve" fill="#4f8095" fill-rule="nonzero" stroke="#4f8095" stroke-width="3" stroke-linecap="butt" stroke-linejoin="miter" stroke-miterlimit="10" stroke-dasharray="" stroke-dashoffset="0" font-family="Sans Serif" font-weight="normal" text-anchor="start" style="mix-blend-mode: normal"><tspan x="0" dy="0">CLICK TO BEGIN</tspan></text><path d="M153,225.16666c0,-1.933 1.567,-3.5 3.5,-3.5c1.933,0 3.5,1.567 3.5,3.5c0,1.933 -1.567,3.5 -3.5,3.5c-1.933,0 -3.5,-1.567 -3.5,-3.5z" fill="#808080" fill-rule="nonzero" stroke="#000000" stroke-width="0" stroke-linecap="butt"/></g></g></svg>