<svg version="1.1" xmlns="http://www.w3.org/2000/svg" xmlns:xlink="http://www.w3.org/1999/xlink" width="604.53936" height="448.47108" viewBox="0,0,604.53936,448.47108"><g transform="translate(66.44205,29.6)"><g data-paper-data="{&quot;isPaintingLayer&quot;:true}" fill-rule="nonzero" stroke-linejoin="miter" stroke-miterlimit="10" stroke-dasharray="" stroke-dashoffset="0" style="mix-blend-mode: normal"><path d="M-29.5,389.59998v-419.19998h539v419.2z" fill="#619db7" stroke="none" stroke-width="0" stroke-linecap="butt"/><path d="M43.19886,87.54354h8.86281l7.69854,15.8604l7.69854,-15.8604h8.85093l-12.35567,24.02227v8.62519h-8.38759v-8.62519zM98.23199,96.40635c0,-1.86128 -0.93459,-2.7919 -2.80378,-2.7919h-7.92426c-1.86128,0 -2.7919,0.93063 -2.7919,2.7919v14.92185c0,1.8692 0.93063,2.80379 2.7919,2.80379h7.92426c1.8692,0 2.80378,-0.93459 2.80378,-2.80379zM106.61959,111.32819c0,3.26317 -0.74055,5.63529 -2.22164,7.11639c-1.47318,1.47318 -3.84135,2.20977 -7.10452,2.20977h-11.65471c-3.26317,0 -5.63529,-0.73659 -7.11639,-2.20977c-1.47318,-1.4811 -2.20977,-3.85323 -2.20977,-7.11639v-14.92185c0,-3.26317 0.73659,-5.63133 2.20977,-7.10452c1.4811,-1.4811 3.85324,-2.22164 7.11639,-2.22164h11.65471c3.26317,0 5.63133,0.74056 7.10452,2.22164c1.4811,1.47318 2.22164,3.84135 2.22164,7.10452zM132.27246,87.54354h8.38759v23.78465c0,3.26317 -0.74056,5.63529 -2.22165,7.11639c-1.47318,1.47318 -3.84134,2.20977 -7.10451,2.20977h-10.71615c-3.27109,0 -5.64321,-0.73659 -7.11639,-2.20977c-1.47318,-1.4811 -2.20977,-3.85323 -2.20977,-7.11639v-23.78465h8.38759v23.78465c0,1.8692 0.9346,2.80379 2.80379,2.80379h6.98569c1.86919,0 2.80379,-0.93459 2.80379,-2.80379zM184.02671,87.54354l5.59569,20.99275l4.89473,-20.99275h9.10043l-8.86281,32.64747h-8.86281l-5.59569,-20.27992l-5.59569,20.27992h-8.85093l-8.86282,-32.64747h9.08855l4.89473,20.99275l5.59569,-20.99275zM231.82771,120.19101h-25.87561v-32.64747h25.87561v6.53425h-17.48802v6.29663h13.75756v6.52237h-13.75756v6.75998h17.48802zM235.56265,87.54354h19.57898c3.26317,0 5.63133,0.74056 7.10452,2.22165c1.4811,1.47318 2.22164,3.84134 2.22164,7.10451v4.20567c0,2.58203 -0.4277,4.58981 -1.2831,6.02339c-0.85539,1.42566 -2.21372,2.36817 -4.07499,2.82755l5.82142,10.26471h-9.08855l-5.35808,-9.78948h-6.53424v9.78948h-8.38759zM256.08017,96.8697c0,-1.86128 -0.93459,-2.7919 -2.80379,-2.7919h-9.32615v9.78948h9.32615c1.86919,0 2.80379,-0.93063 2.80379,-2.7919zM295.01244,120.19101h-25.87561v-32.64747h25.87561v6.53425h-17.48802v6.29663h13.75755v6.52237h-13.75755v6.75998h17.48802zM311.75052,113.43103c8.52224,0.46729 14.28821,0.70095 17.29793,0.70095c0.72075,0 1.291,-0.20989 1.71078,-0.62967c0.41978,-0.41978 0.62967,-0.99004 0.62967,-1.71078v-4.19381h-10.72804c-3.26317,0 -5.63529,-0.73658 -7.11639,-2.20976c-1.47318,-1.4811 -2.20977,-3.85324 -2.20977,-7.11639v-1.40189c0,-3.26317 0.73659,-5.63133 2.20977,-7.10452c1.4811,-1.4811 3.85324,-2.22164 7.11639,-2.22164h16.35937v6.53424h-14.49415c-1.86919,0 -2.80379,0.93064 -2.80379,2.79191v0.93856c0,1.86128 0.9346,2.7919 2.80379,2.7919h8.38759c3.04931,0 5.2868,0.71678 6.71245,2.15036c1.43358,1.43358 2.15036,3.67105 2.15036,6.71246v2.32856c0,3.04931 -0.71678,5.29076 -2.15036,6.72434c-1.42566,1.42566 -3.66314,2.13848 -6.71245,2.13848c-1.58405,0 -3.26317,-0.03167 -5.03731,-0.09504l-4.28884,-0.17821c-3.16812,-0.15841 -6.44712,-0.37621 -9.83701,-0.65343zM364.96011,87.54354h8.38759v23.78465c0,3.26317 -0.74055,5.63529 -2.22164,7.11639c-1.47318,1.47318 -3.84134,2.20977 -7.10451,2.20977h-10.71616c-3.27109,0 -5.64321,-0.73659 -7.11639,-2.20977c-1.47318,-1.4811 -2.20977,-3.85323 -2.20977,-7.11639v-23.78465h8.38759v23.78465c0,1.8692 0.93459,2.80379 2.80379,2.80379h6.9857c1.86919,0 2.80379,-0.93459 2.80379,-2.80379zM407.3941,120.19101h-8.86281l-11.19139,-19.59087v19.59087h-8.38759v-32.64747h8.85093l11.19139,19.59087v-19.59087h8.39947zM421.3804,120.19101h-8.38759v-32.64747h8.38759v12.83089h4.1938l7.28267,-12.83089h8.85093l-9.13607,16.09801l9.08855,16.54946h-8.85094l-7.23515,-13.29421h-4.1938z" fill="#c0c0c0" stroke="none" stroke-width="1" stroke-linecap="square"/><path d="M45.89365,136.79397h12.53829c2.04445,0 3.54586,0.46586 4.5042,1.39759c0.96366,0.93171 1.4455,2.34793 1.4455,4.24865c0,1.25116 -0.27154,2.27074 -0.81459,3.05871c-0.54306,0.78265 -1.21124,1.33102 -2.00454,1.64516c1.69306,0.45788 2.84308,1.58659 3.45003,3.38615c0.20764,0.64422 0.31145,1.39491 0.31145,2.25209c0,2.04979 -0.48183,3.55651 -1.4455,4.52018c-0.95834,0.95834 -2.4624,1.43751 -4.51219,1.43751h-13.47267zM59.68577,151.83993c0,-1.25116 -0.62826,-1.87676 -1.88474,-1.87676h-6.26915v4.3844h6.26915c1.25648,0 1.88474,-0.62559 1.88474,-1.87676zM58.7434,143.06312c0,-1.25116 -0.62825,-1.87676 -1.88473,-1.87676h-5.32678v4.3844h5.32678c1.25648,0 1.88473,-0.62559 1.88473,-1.87676zM85.54301,158.73997h-17.39388v-21.946h17.39388v4.39239h-11.75564v4.23267h9.24799v4.3844h-9.24798v4.54414h11.75564zM98.70723,158.73997h-5.63824v-17.5536h-6.5886v-4.39238h18.80744v4.39238h-6.5806zM118.14161,158.73997h-5.63824v-17.5536h-6.5886v-4.39238h18.80744v4.39238h-6.5806zM144.3163,158.73997h-17.39389v-21.946h17.39389v4.39239h-11.75565v4.23267h9.24799v4.3844h-9.24798v4.54414h11.75565zM146.82697,136.79397h13.16122c2.19354,0 3.78544,0.4978 4.77572,1.49341c0.99561,0.99029 1.49341,2.58219 1.49341,4.77573v2.82709c0,1.73567 -0.2875,3.08533 -0.86252,4.04899c-0.575,0.95834 -1.48809,1.59191 -2.73925,1.9007l3.91322,6.90005h-6.10942l-3.60176,-6.5806h-4.39238v6.5806h-5.63824zM160.61909,143.06312c0,-1.25116 -0.62825,-1.87676 -1.88473,-1.87676h-6.26916v6.5806h6.26916c1.25648,0 1.88473,-0.62559 1.88473,-1.87676zM184.43786,154.34758h11.44419v4.39239h-17.08242v-21.94601h5.63824zM212.18084,136.79397h5.63824v15.98832c0,2.19354 -0.4978,3.78811 -1.49341,4.78372c-0.99029,0.99029 -2.58218,1.48543 -4.77572,1.48543h-7.20353c-2.19886,0 -3.79343,-0.49515 -4.78372,-1.48543c-0.99029,-0.99561 -1.48543,-2.59018 -1.48543,-4.78372v-15.98831h5.63824v15.98832c0,1.25648 0.62825,1.88474 1.88474,1.88474h4.69586c1.25648,0 1.88474,-0.62825 1.88474,-1.88474zM238.50928,158.42852c-4.65861,0.41529 -8.52391,0.62293 -11.59593,0.62293c-2.04979,0 -3.5565,-0.47918 -4.52018,-1.43752c-0.95834,-0.96366 -1.43752,-2.47039 -1.43752,-4.52018v-10.03062c0,-2.19354 0.49515,-3.78544 1.48543,-4.77573c0.99561,-0.99561 2.59018,-1.49341 4.78372,-1.49341h11.28447v4.39239h-10.03063c-1.25116,0 -1.87676,0.62559 -1.87676,1.87676v10.03062c0,0.4845 0.13843,0.86784 0.41529,1.15c0.28218,0.28218 0.64155,0.42327 1.07813,0.42327c0.44189,0 0.92374,-0.00532 1.4455,-0.01598c0.52709,-0.01066 1.07281,-0.02662 1.63717,-0.04792c0.56436,-0.02129 1.13136,-0.0426 1.70105,-0.06389c0.575,-0.02129 1.31772,-0.06124 2.22813,-0.11979c0.91042,-0.06389 2.04446,-0.13842 3.4021,-0.2236zM246.65918,158.73997h-5.63824v-21.946h5.63824v8.62507h2.81911l4.89553,-8.62507h5.94969l-6.14137,10.82127l6.10942,11.12475h-5.94969l-4.86358,-8.93653h-2.81911zM290.73329,158.73997h-5.95769l-7.52298,-13.1692v13.1692h-5.63824v-21.946h5.94969l7.52297,13.1692v-13.1692h5.64623zM311.89065,158.73997h-17.39386v-21.946h17.39386v4.39239h-11.75562v4.23267h9.24796v4.3844h-9.24796v4.54414h11.75562zM327.09137,136.79397h6.26915l-7.0518,10.973l7.21151,10.973h-6.26915l-4.39238,-6.90004l-4.3844,6.90004h-6.26916l7.21152,-10.973l-7.05978,-10.973h6.23721l4.26461,6.90005zM345.7431,158.73997h-5.63824v-17.5536h-6.5886v-4.39238h18.80744v4.39238h-6.5806zM374.58117,158.73997h-5.63824v-17.5536h-6.5886v-4.39238h18.80744v4.39238h-6.5806zM393.70407,158.73997h-11.28446v-4.39238h2.81911v-13.16121h-2.81911v-4.39238h11.28446v4.39238h-2.81911v13.16121h2.81911zM415.33462,146.51315l-4.39238,7.83444h-4.3844l-4.39239,-7.83444v12.22682h-5.63824v-21.946h5.94969l6.26916,11.60391l6.26915,-11.60391h5.95769v21.946h-5.63824zM442.13225,158.73997h-17.39389v-21.946h17.39389v4.39239h-11.75565v4.23267h9.24798v4.3844h-9.24798v4.54414h11.75565z" fill="#4d7c91" stroke="none" stroke-width="1" stroke-linecap="square"/><path d="M-2.48477,229.1925c44.97701,-4.99459 106.49932,65.65287 262.94596,67.15278c156.18913,1.49744 269.22047,-59.7833 275.22648,25.6417c1.29292,18.38957 13.58016,66.58286 -33.06363,79.13239c-51.72572,13.91683 -110.20044,9.33038 -250.98278,15.33639c-91.56866,3.90647 -168.81114,2.92685 -223.93421,-1.87429c-38.92352,-3.39018 -66.8597,-10.63359 -81.15267,-25.48154c-17.36307,-18.03724 -30.3895,-150.87367 50.96085,-159.90743z" data-paper-data="{&quot;index&quot;:null}" fill="#588fa6" stroke="none" stroke-width="0" stroke-linecap="butt"/><path d="M433.71135,211.29298c-2.31852,8.51539 -11.38878,13.46063 -20.25898,11.04549c-8.8702,-2.41513 -14.18137,-11.27607 -11.86285,-19.79146c2.31852,-8.51539 11.38878,-13.46063 20.25898,-11.04549c8.8702,2.41513 14.18137,11.27607 11.86285,19.79146z" fill="#49778a" stroke="none" stroke-width="0" stroke-linecap="butt"/><path d="M377.76388,314.75067l29.03661,-106.64446l17.98822,4.89774l-29.03661,106.64446z" fill="#49778a" stroke="none" stroke-width="0" stroke-linecap="butt"/><path d="M440.50234,313.44982c0,0 -7.63262,20.73811 -53.50546,9.15676c-37.72495,-9.52427 -34.23057,-41.77158 -34.23057,-41.77158" fill="none" stroke="#49778a" stroke-width="20.5" stroke-linecap="round"/><path d="M375.99425,236.51486l64.38948,20.15107" fill="none" stroke="#49778a" stroke-width="20.5" stroke-linecap="round"/><text transform="translate(96.26154,353.93692) scale(0.5,0.5)" font-size="40" xml:space="preserve" fill="#c0c0c0" fill-rule="nonzero" stroke="none" stroke-width="1" stroke-linecap="butt" stroke-linejoin="miter" stroke-miterlimit="10" stroke-dasharray="" stroke-dashoffset="0" font-family="Sans Serif" font-weight="normal" text-anchor="start" style="mix-blend-mode: normal"><tspan x="0" dy="0">REFRESH PAGE TO PLAY AGAIN</tspan></text></g></g></svg>