<svg version="1.1" xmlns="http://www.w3.org/2000/svg" xmlns:xlink="http://www.w3.org/1999/xlink" width="62.29305" height="31.97543" viewBox="0,0,62.29305,31.97543"><g transform="translate(-208.85348,-28.87715)"><g data-paper-data="{&quot;isPaintingLayer&quot;:true}" fill-rule="nonzero" stroke="none" stroke-width="0" stroke-linecap="butt" stroke-linejoin="miter" stroke-miterlimit="10" stroke-dasharray="" stroke-dashoffset="0" style="mix-blend-mode: normal"><g><path d="M223.73116,53.00152c0,4.33601 -2.62219,7.85106 -5.85681,7.85106c-3.23462,0 -5.8568,-3.51503 -5.8568,-7.85106c0,-4.33602 2.62218,-7.85106 5.8568,-7.85106c3.23462,0 5.85681,3.51504 5.85681,7.85106z" fill="#c0c0c0"/><path d="M212.01755,52.67566v-15.21142h11.7136v15.21142z" fill="#c0c0c0"/><path d="M213.15112,40.8813c0,0 -3.53137,-9.01942 -4.21667,-10.76111c-0.21538,-0.5474 0.06703,-0.91528 0.06703,-0.91528c0,0 0.09936,-0.32776 0.82885,-0.32776c2.12661,0 12.67943,0 16.388,0c0.80824,0 0.79976,0.32776 0.79976,0.32776c0,0 0.26491,0.22713 0.03377,0.79281c-0.72093,1.76439 -4.45429,10.90135 -4.45429,10.90135z" fill="#c0c0c0"/><path d="M210.41074,52.05495v-3.60536h14.28488v3.60536z" fill="#619db7"/></g><g><path d="M245.73116,53.00152c0,4.33601 -2.62219,7.85106 -5.85681,7.85106c-3.23462,0 -5.8568,-3.51503 -5.8568,-7.85106c0,-4.33602 2.62218,-7.85106 5.8568,-7.85106c3.23462,0 5.85681,3.51504 5.85681,7.85106z" fill="#c0c0c0"/><path d="M234.01755,52.67566v-15.21142h11.7136v15.21142z" fill="#c0c0c0"/><path d="M235.15112,40.8813c0,0 -3.53137,-9.01942 -4.21667,-10.76111c-0.21538,-0.5474 0.06703,-0.91528 0.06703,-0.91528c0,0 0.09936,-0.32776 0.82885,-0.32776c2.12661,0 12.67943,0 16.388,0c0.80824,0 0.79976,0.32776 0.79976,0.32776c0,0 0.26491,0.22713 0.03377,0.79281c-0.72093,1.76439 -4.45429,10.90135 -4.45429,10.90135z" fill="#c0c0c0"/><path d="M232.41074,52.05495v-3.60536h14.28488v3.60536z" fill="#619db7"/></g><g><path d="M267.73116,53.00152c0,4.33601 -2.62218,7.85106 -5.8568,7.85106c-3.23462,0 -5.8568,-3.51503 -5.8568,-7.85106c0,-4.33602 2.62218,-7.85106 5.8568,-7.85106c3.23462,0 5.8568,3.51504 5.8568,7.85106z" fill="#c0c0c0"/><path d="M256.01755,52.67566v-15.21142h11.7136v15.21142z" fill="#c0c0c0"/><path d="M257.15112,40.8813c0,0 -3.53137,-9.01942 -4.21667,-10.76111c-0.21538,-0.5474 0.06703,-0.91528 0.06703,-0.91528c0,0 0.09936,-0.32776 0.82885,-0.32776c2.12661,0 12.67944,0 16.38801,0c0.80824,0 0.79976,0.32776 0.79976,0.32776c0,0 0.26491,0.22713 0.03377,0.79281c-0.72093,1.76439 -4.45429,10.90135 -4.45429,10.90135z" fill="#c0c0c0"/><path d="M254.41074,52.05495v-3.60536h14.28488v3.60536z" fill="#619db7"/></g></g></g></svg>