<svg version="1.1" xmlns="http://www.w3.org/2000/svg" xmlns:xlink="http://www.w3.org/1999/xlink" width="60" height="60" viewBox="0,0,60,60"><g transform="translate(-210,-150)"><g data-paper-data="{&quot;isPaintingLayer&quot;:true}" fill-rule="nonzero" stroke-linecap="butt" stroke-linejoin="miter" stroke-miterlimit="10" stroke-dasharray="" stroke-dashoffset="0" style="mix-blend-mode: normal"><path d="M210,210v-60h60v60z" fill="#e39d9d" stroke="none" stroke-width="1"/><path d="M224.58037,207.01606c-3.43017,-7.49641 0.8191,-23.43682 6.35994,-31.49904c3.65419,-5.31704 9.02305,-4.77361 9.02305,-4.77361c0,0 5.09763,-0.24609 9.1315,5.00166c5.90559,7.6827 11.08638,22.73408 7.46594,31.27098c-1.20949,2.85193 -3.37935,1.91454 -5.47629,1.93855c-3.09038,0.03539 -6.49677,0.03341 -10.31281,-0.037c-3.48519,-0.0643 -7.17681,-0.20067 -10.1246,0.06102c-2.6681,0.23686 -4.69022,1.0457 -6.06673,-1.96257z" fill="#ffffff" stroke="#888888" stroke-width="1.5"/><path d="M227.98469,169.79832c0,-6.63587 5.37944,-12.01531 12.01531,-12.01531c6.63587,0 12.01531,5.37944 12.01531,12.01531c0,6.63587 -5.37944,12.01531 -12.01531,12.01531c-6.63587,0 -12.01531,-5.37944 -12.01531,-12.01531z" fill="#ffffff" stroke="#888888" stroke-width="1.5"/></g></g></svg>