<svg version="1.1" xmlns="http://www.w3.org/2000/svg" xmlns:xlink="http://www.w3.org/1999/xlink" width="12.47716" height="103.5495" viewBox="0,0,12.47716,103.5495"><g transform="translate(-234.04051,-122.43339)"><g data-paper-data="{&quot;isPaintingLayer&quot;:true}" stroke="none" stroke-linejoin="miter" stroke-miterlimit="10" stroke-dasharray="" stroke-dashoffset="0" style="mix-blend-mode: normal"><path d="M243.50004,122.4334z" fill="#c7c7c7" fill-rule="nonzero" stroke-width="0" stroke-linecap="butt"/><g><path d="M234.12879,210.79028v-26.27389h12.36363v26.27389z" fill="#c7c7c7" fill-rule="nonzero" stroke-width="0" stroke-linecap="butt"/><path d="M243.68536,183.71155z" fill="#c7c7c7" fill-rule="nonzero" stroke-width="0" stroke-linecap="butt"/><path d="M246.47309,222.11919c0,2.13386 -0.92773,3.86371 -2.07214,3.86371h-8.2883c-1.14441,0 -2.07214,-1.72985 -2.07214,-3.86371c0,-2.13386 0,-8.04611 0,-9.74269c0,-3.18831 0,-6.57486 0,-6.57486c0,-1.02473 0.21832,-2.00746 0.60692,-2.73203c0.3886,-0.72457 0.91565,-1.13164 1.46522,-1.13164v0h8.2883c1.14441,0 2.07214,1.72982 2.07214,3.86369v0c0,0 0,4.2991 0,6.74336c0,1.14703 0,6.35706 0,9.57419z" fill="#c7c7c7" fill-rule="evenodd" stroke-width="1" stroke-linecap="square"/><path d="M246.51767,185.72179c0,10.01706 -2.99378,20.83077 -6.20707,20.83077c-3.21329,0 -6.20707,-10.71012 -6.20707,-20.72718c0,-10.01706 2.99378,-12.17759 6.20707,-12.17759c3.21329,0 6.20707,2.05695 6.20707,12.074z" fill="#c7c7c7" fill-rule="nonzero" stroke-width="0" stroke-linecap="butt"/><g fill-rule="nonzero" stroke-width="0" stroke-linecap="butt"><path d="M244.56179,196.94687c0,2.36452 -1.84837,4.28135 -4.12844,4.28135c-2.28007,0 -4.12844,-1.91682 -4.12844,-4.28135c0,-2.36452 1.84837,-4.28135 4.12844,-4.28135c2.28007,0 4.12844,1.91682 4.12844,4.28135z" fill="#b8b8b8"/><path d="M244.76566,194.55136c0,2.44897 -1.98528,4.43425 -4.43425,4.43425c-2.44897,0 -4.43425,-1.98528 -4.43425,-4.43425c0,-2.44897 1.98528,-4.43425 4.43425,-4.43425c2.44897,0 4.43425,1.98528 4.43425,4.43425z" fill="#c7c7c7"/></g><g fill-rule="nonzero" stroke-width="0" stroke-linecap="butt"><path d="M244.56178,209.39133c0,2.36452 -1.84836,4.28134 -4.12844,4.28134c-2.28008,0 -4.12844,-1.91682 -4.12844,-4.28134c0,-2.36452 1.84837,-4.28134 4.12844,-4.28134c2.28008,0 4.12844,1.91682 4.12844,4.28134z" fill="#b8b8b8"/><path d="M244.76566,206.99581c0,2.44897 -1.98528,4.43425 -4.43425,4.43425c-2.44897,0 -4.43425,-1.98528 -4.43425,-4.43425c0,-2.44897 1.98528,-4.43425 4.43425,-4.43425c2.44897,0 4.43425,1.98528 4.43425,4.43425z" fill="#c7c7c7"/></g></g></g></g></svg>