<svg version="1.1" xmlns="http://www.w3.org/2000/svg" xmlns:xlink="http://www.w3.org/1999/xlink" width="632.38144" height="419.43887" viewBox="0,0,632.38144,419.43887"><g transform="translate(27.26719,24.95483)"><g data-paper-data="{&quot;isPaintingLayer&quot;:true}" stroke="none" stroke-linejoin="miter" stroke-miterlimit="10" stroke-dasharray="" stroke-dashoffset="0" style="mix-blend-mode: normal"><path d="M-27.26719,384.95509v-409.90991h534.53453v409.90991z" fill="#619db7" fill-rule="nonzero" stroke-width="0" stroke-linecap="butt"/><path d="M103.18101,37.02982h17.59375c2.875,0 4.98438,0.65104 6.32813,1.95313c1.35416,1.30209 2.03125,3.29166 2.03125,5.96875c0,1.76041 -0.38021,3.19271 -1.14062,4.29688c-0.76041,1.09375 -1.69791,1.85938 -2.8125,2.29688c2.375,0.64584 3.98959,2.22916 4.84375,4.75c0.29166,0.91666 0.4375,1.97396 0.4375,3.17188c0,2.875 -0.67709,4.98959 -2.03125,6.34375c-1.34375,1.34375 -3.45312,2.01563 -6.32812,2.01563h-18.92187zM122.54039,58.1392c0,-1.75 -0.88021,-2.625 -2.64062,-2.625h-8.79687v6.15625h8.79688c1.76041,0 2.64063,-0.88021 2.64063,-2.64062zM121.22789,45.8267c0,-1.76041 -0.88021,-2.64062 -2.64062,-2.64062h-7.48437v6.15625h7.48438c1.76041,0 2.64063,-0.88021 2.64063,-2.64062zM139.92093,67.82667h-8.57812l11.65625,-30.79687h8.79688l11.67188,30.79688h-8.59375l-1.96875,-5.5h-11zM143.87402,56.60795h7.04688l-3.51562,-10.34375zM177.534,67.82667h-7.90625v-24.64062h-9.25v-6.15625h26.40625v6.15625h-9.25zM204.81396,67.82667h-7.90625v-24.64062h-9.25v-6.15625h26.40627v6.15625h-9.25002zM225.06265,61.67045h16.0625v6.15625h-23.98437v-30.79687h7.92188zM268.62255,67.82667h-24.42187v-30.79687h24.42188v6.15625h-16.5v5.9375h12.98438v6.15625h-12.98437v6.39063h16.5zM271.21871,61.4517c8.03125,0.4375 13.47396,0.65625 16.32813,0.65625c0.66666,0 1.19791,-0.19791 1.59375,-0.59375c0.39584,-0.39584 0.59375,-0.93229 0.59375,-1.60937v-3.95312h-10.10937c-3.08334,0 -5.32291,-0.69791 -6.71875,-2.09375c-1.39584,-1.39584 -2.09375,-3.63541 -2.09375,-6.71875v-1.3125c0,-3.08334 0.69791,-5.31771 2.09375,-6.70312c1.39584,-1.39584 3.63541,-2.09375 6.71875,-2.09375h15.4375v6.15625h-13.6875c-1.76041,0 -2.64062,0.88021 -2.64062,2.64063v0.875c0,1.76041 0.88021,2.64063 2.64063,2.64063h7.92188c2.875,0 4.98438,0.67709 6.32813,2.03125c1.35417,1.34375 2.03125,3.45313 2.03125,6.32813v2.20313c0,2.875 -0.67708,4.98959 -2.03125,6.34375c-1.34375,1.34375 -3.45312,2.01563 -6.32812,2.01563c-1.48959,0 -3.07291,-0.02604 -4.75,-0.07812l-4.04687,-0.1875c-2.98959,-0.14584 -6.08334,-0.34896 -9.28125,-0.60937zM328.46432,67.82667h-7.92187v-12.54687h-11v12.54688h-7.92187v-30.79687h7.92188v12.09375h11v-12.09375h7.92188zM348.25618,67.82667h-15.84375v-6.15625h3.96875v-18.48437h-3.96875v-6.15625h15.84375v6.15625h-3.95312v18.48438h3.95313zM352.22051,37.02982h18.48438c3.07292,0 5.30729,0.69791 6.70313,2.09375c1.39583,1.38541 2.09375,3.61979 2.09375,6.70313v4.40625c0,3.07291 -0.69792,5.30729 -2.09375,6.70313c-1.39583,1.39584 -3.63021,2.09375 -6.70312,2.09375h-10.5625v8.79688h-7.92187zM371.57988,45.8267c0,-1.76041 -0.88021,-2.64062 -2.64062,-2.64062h-8.79687v9.6875h8.79688c1.76042,0 2.64063,-0.88021 2.64063,-2.64062z" fill="#c0c0c0" fill-rule="nonzero" stroke-width="1" stroke-linecap="square"/><text transform="translate(564.08291,190.21057) scale(0.20559,0.20559)" font-size="40" xml:space="preserve" fill="#353535" fill-rule="nonzero" stroke="none" stroke-width="1" stroke-linecap="butt" stroke-linejoin="miter" stroke-miterlimit="10" stroke-dasharray="" stroke-dashoffset="0" font-family="Sans Serif" font-weight="normal" text-anchor="start" style="mix-blend-mode: normal"><tspan x="0" dy="0"> </tspan></text><text transform="translate(-2.411,196.31131) scale(0.24741,0.08738)" font-size="40" xml:space="preserve" fill="#353535" fill-rule="nonzero" stroke="none" stroke-width="1" stroke-linecap="butt" stroke-linejoin="miter" stroke-miterlimit="10" stroke-dasharray="" stroke-dashoffset="0" font-family="Sans Serif" font-weight="normal" text-anchor="start" style="mix-blend-mode: normal"><tspan x="0" dy="0"> </tspan></text><text transform="translate(200.36691,197.79889) scale(0.24741,0.08738)" font-size="40" xml:space="preserve" fill="#353535" fill-rule="nonzero" stroke="none" stroke-width="1" stroke-linecap="butt" stroke-linejoin="miter" stroke-miterlimit="10" stroke-dasharray="" stroke-dashoffset="0" font-family="Sans Serif" font-weight="normal" text-anchor="start" style="mix-blend-mode: normal"><tspan x="0" dy="0"> </tspan></text><text transform="translate(404.94993,198.64894) scale(0.24741,0.08738)" font-size="40" xml:space="preserve" fill="#353535" fill-rule="nonzero" stroke="none" stroke-width="1" stroke-linecap="butt" stroke-linejoin="miter" stroke-miterlimit="10" stroke-dasharray="" stroke-dashoffset="0" font-family="Sans Serif" font-weight="normal" text-anchor="start" style="mix-blend-mode: normal"><tspan x="0" dy="0"> </tspan></text><text transform="translate(-2.411,190.3053) scale(0.24741,0.08738)" font-size="40" xml:space="preserve" fill="#353535" fill-rule="nonzero" stroke="none" stroke-width="1" stroke-linecap="butt" stroke-linejoin="miter" stroke-miterlimit="10" stroke-dasharray="" stroke-dashoffset="0" font-family="Sans Serif" font-weight="normal" text-anchor="start" style="mix-blend-mode: normal"><tspan x="0" dy="0"> </tspan></text><text transform="translate(200.36691,191.79286) scale(0.24741,0.08738)" font-size="40" xml:space="preserve" fill="#353535" fill-rule="nonzero" stroke="none" stroke-width="1" stroke-linecap="butt" stroke-linejoin="miter" stroke-miterlimit="10" stroke-dasharray="" stroke-dashoffset="0" font-family="Sans Serif" font-weight="normal" text-anchor="start" style="mix-blend-mode: normal"><tspan x="0" dy="0"> </tspan></text><text transform="translate(404.94993,192.64293) scale(0.24741,0.08738)" font-size="40" xml:space="preserve" fill="#353535" fill-rule="nonzero" stroke="none" stroke-width="1" stroke-linecap="butt" stroke-linejoin="miter" stroke-miterlimit="10" stroke-dasharray="" stroke-dashoffset="0" font-family="Sans Serif" font-weight="normal" text-anchor="start" style="mix-blend-mode: normal"><tspan x="0" dy="0"> </tspan></text><g fill="#5a91a9"><path d="M-23.41079,394.48405v-230.85059h531.84936v230.85059z" fill-rule="nonzero" stroke-width="0" stroke-linecap="butt"/><g fill-rule="evenodd" stroke-width="1" stroke-linecap="square"><path d="M-23.39548,127.35251c59.82883,-25.97779 119.65771,25.97779 179.48654,0v46.76004c-59.82883,25.97779 -119.65771,-25.97779 -179.48654,0z"/><path d="M151.83999,128.28767c59.82883,-25.97779 119.65771,25.97779 179.48654,0v46.76005c-39.7853,17.27486 -79.57063,0.08713 -119.35594,-5.72895c-20.04353,-2.93009 -40.08707,-2.97399 -60.13059,5.72895z"/><path d="M329.44802,129.0101c59.82883,-25.97779 119.65771,25.97779 179.48654,0v46.76004c-59.82883,25.97779 -119.65771,-25.97779 -179.48654,0z"/></g></g><path d="M602.862,154.54397c-1.24388,0 -2.25225,-0.33612 -2.25225,-0.75075c0,-0.41463 1.00837,-0.75075 2.25225,-0.75075c1.24388,0 2.25225,0.33612 2.25225,0.75075c0,0.41463 -1.00837,0.75075 -2.25225,0.75075z" fill="#4f8095" fill-rule="nonzero" stroke-width="0" stroke-linecap="butt"/><path d="M390.64678,269.49172z" fill="#4f8095" fill-rule="nonzero" stroke-width="0" stroke-linecap="butt"/><path d="M107.1326,319.01059h9.5758c1.59278,0 2.75232,0.36316 3.47863,1.08947c0.72631,0.72631 1.08946,1.88584 1.08946,3.47863v2.2745c0,1.60552 -0.36315,2.77144 -1.08946,3.49775c-0.72631,0.71356 -1.88586,1.07035 -3.47863,1.07035h-5.46642v4.5681h-4.10937zM117.16712,323.57871c0,-0.91744 -0.45872,-1.37616 -1.37616,-1.37616h-4.54898v5.02682h4.54898c0.91744,0 1.37616,-0.45872 1.37616,-1.37616zM123.33576,319.01059h9.5758c1.59278,0 2.75232,0.36316 3.47863,1.08947c0.72631,0.72631 1.08947,1.88584 1.08947,3.47863v2.04514c0,1.27422 -0.21024,2.26175 -0.63073,2.96258c-0.42049,0.68808 -1.08309,1.1468 -1.98779,1.37616l2.84789,5.02682h-4.45341l-2.61853,-4.79746h-3.19193v4.79746h-4.10937zM133.37028,323.57871c0,-0.91744 -0.45872,-1.37616 -1.37616,-1.37616h-4.54898v4.79746h4.54898c0.91744,0 1.37616,-0.45872 1.37616,-1.37616zM152.42018,334.98938h-12.65305v-15.97877h12.65305v3.19194h-8.54367v3.09637h6.72791v3.19194h-6.72791v3.30662h8.54368zM153.78092,331.68278c4.16671,0.22936 6.98912,0.34404 8.46723,0.34404c0.34404,0 0.618,-0.10195 0.82188,-0.30581c0.20387,-0.20388 0.30581,-0.48421 0.30581,-0.84099v-2.04514h-5.23706c-1.60552,0 -2.77143,-0.36315 -3.49774,-1.08946c-0.71357,-0.72631 -1.07035,-1.88586 -1.07035,-3.47863v-0.68808c0,-1.59279 0.35677,-2.75232 1.07035,-3.47863c0.72631,-0.72631 1.89223,-1.08946 3.49775,-1.08946h8.00851v3.19194h-7.11017c-0.90471,0 -1.35704,0.45872 -1.35704,1.37616v0.45872c0,0.91744 0.45235,1.37616 1.35706,1.37616h4.10938c1.49084,0 2.58668,0.35041 3.2875,1.05124c0.70082,0.68808 1.05124,1.77755 1.05124,3.26839v1.1468c0,1.49084 -0.35041,2.58667 -1.05123,3.2875c-0.70082,0.70082 -1.79666,1.05124 -3.2875,1.05124c-0.77728,0 -1.59915,-0.01275 -2.46562,-0.03823l-2.08335,-0.09556c-1.55456,-0.07645 -3.16008,-0.18476 -4.81657,-0.32492zM169.07123,331.68278c4.16671,0.22936 6.98912,0.34404 8.46723,0.34404c0.34404,0 0.618,-0.10195 0.82188,-0.30581c0.20387,-0.20388 0.30581,-0.48421 0.30581,-0.84099v-2.04514h-5.23706c-1.60552,0 -2.77143,-0.36315 -3.49774,-1.08946c-0.71357,-0.72631 -1.07035,-1.88586 -1.07035,-3.47863v-0.68808c0,-1.59279 0.35677,-2.75232 1.07035,-3.47863c0.72631,-0.72631 1.89223,-1.08946 3.49775,-1.08946h8.00851v3.19194h-7.11017c-0.90471,0 -1.35704,0.45872 -1.35704,1.37616v0.45872c0,0.91744 0.45235,1.37616 1.35706,1.37616h4.10938c1.49084,0 2.58668,0.35041 3.2875,1.05124c0.70082,0.68808 1.05124,1.77755 1.05124,3.26839v1.1468c0,1.49084 -0.35041,2.58667 -1.05123,3.2875c-0.70082,0.70082 -1.79666,1.05124 -3.2875,1.05124c-0.77727,0 -1.59915,-0.01275 -2.46562,-0.03823l-2.08335,-0.09556c-1.55456,-0.07645 -3.16008,-0.18476 -4.81657,-0.32492zM191.20795,331.68278c4.16671,0.22936 6.98912,0.34404 8.46723,0.34404c0.34404,0 0.618,-0.10195 0.82188,-0.30581c0.20387,-0.20388 0.30581,-0.48421 0.30581,-0.84099v-2.04514h-5.23706c-1.60552,0 -2.77143,-0.36315 -3.49774,-1.08946c-0.71357,-0.72631 -1.07035,-1.88586 -1.07035,-3.47863v-0.68808c0,-1.59279 0.35677,-2.75232 1.07035,-3.47863c0.72631,-0.72631 1.89223,-1.08946 3.49775,-1.08946h8.00851v3.19194h-7.11017c-0.90471,0 -1.35704,0.45872 -1.35704,1.37616v0.45872c0,0.91744 0.45235,1.37616 1.35706,1.37616h4.10938c1.49084,0 2.58668,0.35041 3.2875,1.05124c0.70082,0.68808 1.05124,1.77755 1.05124,3.26839v1.1468c0,1.49084 -0.35041,2.58667 -1.05123,3.2875c-0.70082,0.70082 -1.79666,1.05124 -3.2875,1.05124c-0.77727,0 -1.59915,-0.01275 -2.46562,-0.03823l-2.08335,-0.09556c-1.55456,-0.07645 -3.16008,-0.18476 -4.81657,-0.32492zM206.97611,319.01059h9.5758c1.59279,0 2.75232,0.36316 3.47863,1.08947c0.72631,0.72631 1.08947,1.88584 1.08947,3.47863v2.2745c0,1.60552 -0.36315,2.77144 -1.08946,3.49775c-0.72631,0.71356 -1.88584,1.07035 -3.47863,1.07035h-5.46642v4.5681h-4.10937zM217.01062,323.57871c0,-0.91744 -0.45872,-1.37616 -1.37616,-1.37616h-4.54898v5.02682h4.54898c0.91744,0 1.37616,-0.45872 1.37616,-1.37616zM224.65711,334.98938h-4.45341l6.03982,-15.97877h4.5681l6.05894,15.97877h-4.45341l-1.03212,-2.8479h-5.69578zM226.70228,329.17891h3.65066l-1.81576,-5.37086zM249.86474,334.76003c-3.38945,0.30581 -6.1991,0.45872 -8.42899,0.45872c-1.49084,0 -2.58668,-0.35041 -3.2875,-1.05124c-0.70082,-0.70083 -1.05123,-1.79666 -1.05123,-3.2875v-7.30131c0,-1.59279 0.35677,-2.75232 1.07035,-3.47863c0.72631,-0.72631 1.89223,-1.08946 3.49775,-1.08946h8.19964v3.19194h-7.30131c-0.90471,0 -1.35704,0.45872 -1.35704,1.37616v7.30131c0,0.35677 0.10195,0.63711 0.30581,0.84099c0.20387,0.20387 0.46509,0.30581 0.78365,0.30581c0.31855,0 0.66897,0 1.05124,0c0.38227,-0.01275 0.77727,-0.02549 1.18503,-0.03823c0.40776,-0.02549 0.82188,-0.0446 1.24237,-0.05733c0.42049,-0.01275 0.96204,-0.03823 1.62464,-0.07645c0.66259,-0.05097 1.48447,-0.10831 2.46563,-0.17201zM264.35801,334.98938h-12.65305v-15.97877h12.65305v3.19194h-8.54367v3.09637h6.72791v3.19194h-6.72791v3.30662h8.54367zM280.80298,334.98938h-4.10937v-12.78685h-4.79745v-3.19193h13.68517v3.19194h-4.77834zM297.4561,323.34934c0,-0.91744 -0.45872,-1.37616 -1.37616,-1.37616h-3.88001c-0.9047,0 -1.35704,0.45872 -1.35704,1.37616v7.30131c0,0.91744 0.45235,1.37616 1.35706,1.37616h3.88002c0.91744,0 1.37616,-0.45872 1.37616,-1.37616zM301.56546,330.65065c0,1.60552 -0.36315,2.77144 -1.08946,3.49775c-0.72631,0.71356 -1.88584,1.07035 -3.47863,1.07035h-5.69578c-1.60552,0 -2.77143,-0.35679 -3.49774,-1.07035c-0.71356,-0.72631 -1.07035,-1.89223 -1.07035,-3.49775v-7.30131c0,-1.59279 0.35679,-2.75232 1.07035,-3.47863c0.72631,-0.72631 1.89223,-1.08946 3.49775,-1.08946h5.69578c1.59279,0 2.75232,0.36316 3.47863,1.08947c0.72631,0.72631 1.08947,1.88584 1.08947,3.47863zM310.69822,319.01059h9.11708c1.49084,0 2.58668,0.33767 3.2875,1.01301c0.70083,0.67535 1.05124,1.70747 1.05124,3.09637c0,0.91744 -0.19751,1.66287 -0.59251,2.23627c-0.395,0.56067 -0.87921,0.95567 -1.45262,1.18503c1.22326,0.33131 2.05787,1.15318 2.50386,2.46563c0.15291,0.47147 0.22936,1.01938 0.22936,1.64375c0,1.49084 -0.35041,2.58667 -1.05123,3.2875c-0.70082,0.70082 -1.79666,1.05124 -3.2875,1.05124h-9.80515zM320.73272,329.96258c0,-0.9047 -0.45872,-1.35704 -1.37616,-1.35704h-4.54898v3.19194h4.54898c0.91744,0 1.37616,-0.45872 1.37616,-1.37616zM320.04465,323.57871c0,-0.91744 -0.45235,-1.37616 -1.35704,-1.37616h-3.88001v3.21105h3.88002c0.90471,0 1.35706,-0.45872 1.35706,-1.37616zM339.55445,334.98938h-12.65305v-15.97877h12.65305v3.19194h-8.54367v3.09637h6.72791v3.19194h-6.72791v3.30662h8.54368zM355.07816,334.64534c-3.55509,0.38227 -6.82347,0.5734 -9.80515,0.5734c-1.49084,0 -2.58667,-0.35041 -3.2875,-1.05124c-0.70082,-0.70083 -1.05123,-1.79666 -1.05123,-3.2875v-7.30131c0,-1.59279 0.35679,-2.75232 1.07035,-3.47863c0.72631,-0.72631 1.89223,-1.08946 3.49775,-1.08946h8.19964v3.19194h-7.30131c-0.9047,0 -1.35704,0.45872 -1.35704,1.37616v7.30131c0,0.35677 0.10195,0.63711 0.30581,0.84099c0.20388,0.20387 0.47784,0.30581 0.82188,0.30581c1.75843,0 3.35758,-0.03823 4.79746,-0.11468v-3.30662h-2.96257v-2.75232h7.07195zM364.89855,334.98938h-8.21875v-3.19194h2.04514v-9.59491h-2.04512v-3.19193h8.21875v3.19194h-2.06424v9.59491h2.06424zM380.86739,334.98938h-4.33873l-5.46642,-9.5758v9.5758h-4.10937v-15.97877h4.33874l5.46642,9.59491v-9.59491h4.10938z" fill="#4f8095" fill-rule="nonzero" stroke-width="1" stroke-linecap="square"/><g fill-rule="nonzero" stroke-width="0"><path d="M328.30413,303.58315c-7.83773,21.7925 -73.23712,9.35939 -123.9546,-7.31287c-50.71749,-16.67226 -73.43124,-23.08881 -69.52188,-34.98119c1.22929,-3.73953 6.45069,-5.92003 14.60892,-6.63386c17.78644,-1.55627 49.53223,3.8589 84.30173,15.28861c50.71749,16.67226 98.80245,21.85954 94.56583,33.6393z" fill="#4f8095" stroke-linecap="butt"/><path d="M145.42381,263.8103c-19.50894,-7.94045 -23.78198,-24.2268 -15.82465,-31.53518c11.63481,-10.68595 33.09912,8.90882 56.90048,5.05572c15.88659,-3.28417 43.61062,-20.71183 66.35329,-37.64979c12.74334,-9.4908 23.92271,-18.1612 30.57927,-24.77016c18.53629,-18.40379 71.85507,-3.78436 71.41931,0.72445c-1.54362,15.9717 -42.51841,88.00027 -42.51841,88.00027c0,0 26.70222,5.31407 17.46054,27.67088c-5.30289,9.12909 -14.70141,13.23566 -42.45286,9.18817c-25.67662,-3.74487 -62.3796,-12.4578 -89.51329,-20.06299c-31.9296,-8.94941 -52.40368,-16.62136 -52.40368,-16.62136c0,0 17.10212,6.96083 0.00001,0z" fill="#c0c0c0" stroke-linecap="round"/><path d="M162.02713,200.45938l68.83836,-34.0695l47.14973,1.72687l-11.55715,9.81183l-26.85773,-0.90624l-0.03858,22.30774c0,0 -24.81296,18.11097 -48.44547,27.31515c-15.16003,5.90439 -25.07737,0.86725 -25.07737,0.86725z" fill="#c0c0c0" stroke-linecap="round"/><path d="M260.74791,183.00526l-14.54218,10.53692l0.09349,-10.51832z" fill="#c0c0c0" stroke-linecap="round"/><g fill="#c0c0c0" stroke-linecap="round"><path d="M176.5419,187.04873l-0.13133,-16.16249l9.97502,-0.06808l-0.16139,11.43409z"/><path d="M204.98412,159.64479l-0.38818,13.47336l-11.85758,6.28793l0.64948,-19.98445z"/><path d="M223.88726,146.82522l-0.86227,17.10091l-11.5027,5.45825l1.0336,-22.73641z"/></g><path d="M183.60454,210.96672c0,4.69442 -1.35914,8.5 -3.03572,8.5c-1.67658,0 -3.03571,-3.80558 -3.03571,-8.5c0,-4.69442 1.35913,-8.5 3.03571,-8.5c1.67658,0 3.03572,3.80558 3.03572,8.5z" fill="#5a91a9" stroke-linecap="butt"/><path d="M201.93788,201.30005c0,4.69442 -1.35914,8.5 -3.03572,8.5c-1.67658,0 -3.03571,-3.80558 -3.03571,-8.5c0,-4.69442 1.35913,-8.5 3.03571,-8.5c1.67658,0 3.03572,3.80558 3.03572,8.5z" fill="#5a91a9" stroke-linecap="butt"/><path d="M218.93788,191.96672c0,4.69442 -1.35914,8.5 -3.03572,8.5c-1.67658,0 -3.03571,-3.80558 -3.03571,-8.5c0,-4.69442 1.35913,-8.5 3.03571,-8.5c1.67658,0 3.03572,3.80558 3.03572,8.5z" fill="#5a91a9" stroke-linecap="butt"/></g><text transform="translate(198.6132,30.64376) scale(0.66251,0.66251)" font-size="40" xml:space="preserve" fill="#c0c0c0" fill-rule="nonzero" stroke="none" stroke-width="1" stroke-linecap="butt" stroke-linejoin="miter" stroke-miterlimit="10" stroke-dasharray="" stroke-dashoffset="0" font-family="Marker" font-weight="normal" text-anchor="start" style="mix-blend-mode: normal"><tspan x="0" dy="0">CLOUD</tspan></text><text transform="translate(170.70232,91.96253) scale(0.57795,0.57795)" font-size="40" xml:space="preserve" fill="#c0c0c0" fill-rule="nonzero" stroke="none" stroke-width="1" stroke-linecap="butt" stroke-linejoin="miter" stroke-miterlimit="10" stroke-dasharray="" stroke-dashoffset="0" font-family="Marker" font-weight="normal" text-anchor="start" style="mix-blend-mode: normal"><tspan x="0" dy="0">MULTIPLAYER</tspan></text></g></g></svg>